<?xml version="1.0" encoding="UTF-8" standalone="no"?>
<!-- Created with Inkscape (http://www.inkscape.org/) -->

<svg
   width="72.032028mm"
   height="39.687538mm"
   viewBox="0 0 72.032028 39.687538"
   version="1.1"
   id="svg5"
   sodipodi:docname="LogoHeader.svg"
   inkscape:version="1.1.2 (b8e25be833, 2022-02-05)"
   xmlns:inkscape="http://www.inkscape.org/namespaces/inkscape"
   xmlns:sodipodi="http://sodipodi.sourceforge.net/DTD/sodipodi-0.dtd"
   xmlns="http://www.w3.org/2000/svg"
   xmlns:svg="http://www.w3.org/2000/svg">
  <sodipodi:namedview
     id="namedview7"
     pagecolor="#ffffff"
     bordercolor="#666666"
     borderopacity="1.0"
     inkscape:pageshadow="2"
     inkscape:pageopacity="0.0"
     inkscape:pagecheckerboard="0"
     inkscape:document-units="mm"
     showgrid="false"
     inkscape:zoom="1.8116734"
     inkscape:cx="230.17394"
     inkscape:cy="178.01222"
     inkscape:window-width="1707"
     inkscape:window-height="996"
     inkscape:window-x="-8"
     inkscape:window-y="-8"
     inkscape:window-maximized="1"
     inkscape:current-layer="layer1" />
  <defs
     id="defs2" />
  <g
     inkscape:label="Layer 1"
     inkscape:groupmode="layer"
     id="layer1"
     transform="translate(-66.833056,-117.59101)">
    <path
       style="fill:#f9eae8;fill-opacity:1;stroke-width:0.017021"
       d="m 99.637958,157.25573 c -0.0396,-0.0201 -0.0684,-0.0537 -0.0915,-0.10695 -0.018,-0.0427 -0.1002,-0.15033 -0.1815,-0.23925 -0.34488,-0.37756 -0.77067,-0.94395 -1.01727,-1.35317 -0.31353,-0.52022 -0.58368,-1.22194 -0.67656,-1.75732 -0.0663,-0.38216 -0.0849,-0.66465 -0.0828,-1.24687 0.002,-0.46713 0.009,-0.65069 0.045,-1.01539 0.03,-0.30157 0.0516,-0.46209 0.0699,-0.49758 0.0438,-0.0845 0.1656,-0.12801 0.2586,-0.0923 0.018,0.007 0.42339,0.33964 0.90354,0.74042 0.48012,0.40077 0.8787,0.72861 0.88572,0.72851 0.006,-1.9e-4 0.0702,-0.0483 0.1404,-0.10701 0.0702,-0.0588 0.437582,-0.36635 0.816352,-0.68353 0.85242,-0.71377 0.82158,-0.69011 0.89979,-0.69003 0.0723,0 0.1614,0.0488 0.1926,0.10542 0.0408,0.0741 0.1002,0.80716 0.111,1.37162 0.021,1.16382 -0.1044,1.81873 -0.52551,2.7105 -0.051,0.10788 -0.1257,0.25341 -0.1662,0.32339 -0.2529,0.43715 -0.77247,1.13462 -1.10882,1.48873 -0.0636,0.067 -0.130802,0.15717 -0.149402,0.20034 -0.018,0.0432 -0.0534,0.0914 -0.0774,0.10725 -0.0645,0.0422 -0.177,0.0483 -0.2457,0.0132 z m 0.2214,-0.58023 c 0.261002,-0.27066 0.709072,-0.85844 0.941092,-1.2345 0.39312,-0.63717 0.63579,-1.32142 0.71964,-2.02927 0.0414,-0.35033 0.042,-1.35254 7.8e-4,-1.70008 -0.015,-0.12996 -0.0315,-0.23985 -0.036,-0.24426 -0.012,-0.012 0.018,-0.037 -0.84168,0.68191 -0.4598,0.38404 -0.822772,0.67509 -0.847912,0.6799 -0.0693,0.0132 -0.1482,-0.0168 -0.2292,-0.0868 -0.4044,-0.35108 -1.53702,-1.2791 -1.54773,-1.26815 -0.0309,0.0316 -0.0837,0.75827 -0.084,1.15529 -1.8e-4,0.22137 0.0333,0.68625 0.0693,0.9609 0.0807,0.61754 0.38145,1.37661 0.78831,1.98984 0.2997,0.45167 0.89193,1.19308 0.95307,1.19308 0.012,0 0.0624,-0.044 0.1146,-0.0979 z m -0.216,-4.66446 c -0.1728,-0.0959 -0.83502,-0.6193 -1.12224,-0.88693 -0.64023,-0.59663 -0.66633,-0.62601 -0.6471,-0.72856 0.009,-0.055 0.078,-0.13023 0.48072,-0.53546 0.2577,-0.25932 0.48993,-0.48026 0.51588,-0.49101 0.0384,-0.0159 0.0576,-0.0141 0.1041,0.01 0.0315,0.0162 0.0609,0.0342 0.0657,0.0401 0.006,0.006 0.1038,0.0902 0.2202,0.1872 0.1983,0.16515 0.44631,0.3418 0.48006,0.3418 0.0303,0 0.493982,-0.42877 0.883402,-0.81701 0.32868,-0.32765 0.44757,-0.46001 0.65751,-0.7319 0.31962,-0.41396 0.44679,-0.60782 0.59742,-0.91062 0.2553,-0.51324 0.42039,-1.0067 0.48117,-1.43827 0.024,-0.17391 0.0519,-0.23874 0.1173,-0.27735 0.0441,-0.0261 0.1176,-0.0291 0.71886,-0.0285 0.36834,2.6e-4 0.70035,0.007 0.73779,0.0162 0.0408,0.009 0.087,0.0367 0.1149,0.0679 0.0408,0.0454 0.0468,0.0662 0.0462,0.15834 -3.9e-4,0.10596 -0.015,0.23148 -0.0501,0.43539 -0.024,0.14649 -0.2208,0.75782 -0.33402,1.04471 -0.2937,0.74333 -0.53805,1.1884 -1.0074,1.83422 -0.30711,0.4226 -0.59532,0.75678 -1.08441,1.25739 -0.44745,0.45801 -0.63672,0.61538 -1.4051,1.16834 -0.078,0.0562 -0.2064,0.15 -0.285302,0.2085 -0.1542,0.11433 -0.1959,0.1254 -0.2853,0.0759 z m -5.09646,-0.7859 c -0.432122,-0.0396 -0.792652,-0.16731 -1.114192,-0.39482 -0.1998,-0.14145 -0.60939,-0.5479 -0.71262,-0.70736 -0.2199,-0.33943 -0.37623,-0.75482 -0.45699,-1.21328 -0.015,-0.0769 -0.021,-0.25971 -0.021,-0.45956 2.1e-4,-0.37082 0.012,-0.45117 0.1542,-1.00424 0.0891,-0.34806 0.1632,-0.51354 0.36273,-0.81208 0.0894,-0.13368 0.1836,-0.2481 0.2817,-0.34238 0.1881,-0.18054 0.2931,-0.22701 0.37611,-0.16635 0.0303,0.0222 0.0327,0.0499 0.0342,0.39573 0.002,0.40035 0.018,0.50564 0.117,0.72816 0.1704,0.3856 0.59642,0.72496 1.090672,0.86905 0.213,0.0621 0.43206,0.062 0.75117,-2.6e-4 0.69504,-0.13578 1.23384,-0.43596 1.67871,-0.93522 0.30447,-0.3417 0.53697,-0.67685 0.73728,-1.06266 0.0555,-0.10677 0.1257,-0.21939 0.156,-0.25023 0.0717,-0.0732 0.1545,-0.0897 0.2295,-0.0459 0.06,0.035 0.33453,0.3946 0.38724,0.50729 0.0348,0.0742 0.036,0.0614 -0.0363,0.37446 -0.0357,0.15537 -0.0393,0.2088 -0.0381,0.61275 0.001,0.44993 0.0303,0.83047 0.0819,1.07233 0.0342,0.15963 0.1023,0.38269 0.1383,0.45219 0.0771,0.14895 0.063,0.22923 -0.0657,0.37217 -0.0486,0.0539 -0.1725,0.19215 -0.2754,0.30712 -0.37017,0.41332 -0.95301,0.92211 -1.33242,1.1631 -0.3915,0.24866 -0.82896,0.42467 -1.28031,0.51508 -0.1629,0.0326 -0.97971,0.049 -1.24254,0.0249 z m 1.25955,-0.39701 c 0.64944,-0.14331 1.18059,-0.4512 1.86765,-1.08261 0.2331,-0.21426 0.60846,-0.6109 0.68028,-0.71891 l 0.0411,-0.0618 -0.0432,-0.13395 c -0.102,-0.31629 -0.1347,-0.49743 -0.1713,-0.94385 -0.0447,-0.54932 -0.0339,-0.93886 0.0366,-1.30403 l 0.027,-0.1395 -0.051,-0.0692 c -0.0591,-0.0802 -0.0525,-0.0847 -0.1584,0.10995 -0.1563,0.28806 -0.37233,0.58829 -0.65073,0.905 -0.1905,0.21666 -0.31344,0.33083 -0.54249,0.50359 -0.32361,0.24408 -0.76542,0.44449 -1.18971,0.53969 -0.0885,0.0198 -0.1929,0.0434 -0.2319,0.0523 -0.039,0.009 -0.1617,0.0252 -0.2724,0.0361 -0.1734,0.0171 -0.2247,0.0159 -0.36825,-0.008 -0.574652,-0.0976 -1.137022,-0.45171 -1.420972,-0.89465 -0.1278,-0.19956 -0.2589,-0.5676 -0.2589,-0.72741 0,-0.0949 -0.042,-0.0685 -0.1344,0.0842 -0.1161,0.19245 -0.1482,0.2715 -0.2172,0.53923 -0.1854,0.71837 -0.2031,1.0558 -0.0816,1.55742 0.0876,0.36194 0.1821,0.58742 0.35772,0.85284 0.0969,0.1467 0.39492,0.44728 0.588,0.59323 0.2385,0.18033 0.59846,0.3136 0.939982,0.34807 0.0858,0.009 0.3588,0.0135 0.60687,0.0108 0.40926,-0.005 0.4692,-0.009 0.6468,-0.0481 z m 7.821142,0.36987 c -0.1821,-0.0338 -0.4788,-0.11349 -0.66516,-0.17862 -0.2223,-0.0777 -0.58719,-0.28605 -0.74793,-0.4272 -0.069,-0.0607 -0.1023,-0.15861 -0.0768,-0.22608 0.009,-0.0246 0.1236,-0.1515 0.2541,-0.282 0.37941,-0.37992 0.56742,-0.61696 0.83328,-1.05066 0.1761,-0.2874 0.30474,-0.54456 0.3852,-0.77059 0.0348,-0.0983 0.0792,-0.19572 0.0984,-0.21654 0.0579,-0.063 0.1335,-0.0787 0.2664,-0.0549 0.0732,0.0132 0.198,0.0174 0.33573,0.012 0.4062,-0.0165 0.8034,-0.14262 1.11279,-0.35368 0.1092,-0.0745 0.30954,-0.27836 0.3909,-0.3979 0.114,-0.16761 0.1533,-0.38188 0.1128,-0.61444 -0.0387,-0.22038 -0.0366,-0.24072 0.033,-0.31026 0.0543,-0.0543 0.0669,-0.0592 0.1305,-0.0506 0.0615,0.008 0.0927,0.0316 0.2475,0.18516 0.2106,0.20886 0.34386,0.40026 0.48974,0.70326 0.2244,0.46588 0.2883,0.79382 0.2889,1.48093 3.9e-4,0.47814 -0.015,0.58702 -0.1215,0.87659 -0.20309,0.54972 -0.65876,1.07439 -1.14566,1.31892 -0.2787,0.13995 -0.71535,0.28047 -1.06545,0.34281 -0.2202,0.0392 -0.97116,0.0482 -1.1562,0.0138 z m 1.10637,-0.37214 c 0.35502,-0.0647 0.78711,-0.20982 1.02486,-0.34409 0.35355,-0.19968 0.69897,-0.60357 0.87234,-1.02 0.114,-0.27354 0.1452,-0.49497 0.1311,-0.92655 -0.018,-0.58858 -0.0789,-0.85174 -0.2868,-1.26374 -0.1626,-0.3221 -0.1626,-0.32205 -0.213,-0.14622 -0.0681,0.23649 -0.1941,0.42615 -0.43491,0.65504 -0.1473,0.13989 -0.2241,0.19455 -0.42099,0.2991 -0.35757,0.18999 -0.76896,0.28845 -1.20225,0.28773 l -0.2406,-3.9e-4 -0.0711,0.17361 c -0.1158,0.28215 -0.39138,0.76112 -0.62793,1.09094 -0.1098,0.1533 -0.34818,0.43244 -0.53757,0.62987 -0.0708,0.074 -0.129,0.14106 -0.129,0.14913 0,0.0195 0.1497,0.11427 0.2979,0.18864 0.177,0.0889 0.52458,0.19593 0.79149,0.24387 0.1776,0.0319 0.83766,0.0213 1.04679,-0.0168 z M 83.091776,149.8512 c -0.68736,-0.0264 -0.98172,-0.11451 -1.03806,-0.31103 -0.03,-0.10125 0.0432,-0.20916 0.1779,-0.26544 0.0369,-0.0153 0.1425,-0.0505 0.2349,-0.0779 0.0924,-0.0273 0.2841,-0.10422 0.42624,-0.1707 0.5337,-0.24954 0.64191,-0.27156 1.61166,-0.32809 0.59871,-0.0349 0.66195,-0.04 0.97017,-0.0782 0.1452,-0.018 0.33276,-0.0411 0.41703,-0.0513 0.2586,-0.0314 0.76338,-0.1149 1.17444,-0.19419 0.2154,-0.0415 0.51287,-0.095 0.66125,-0.11892 0.1485,-0.024 0.3903,-0.0738 0.5376,-0.11088 0.1473,-0.0371 0.41652,-0.0951 0.59829,-0.12885 0.369,-0.0686 0.40527,-0.0777 0.79005,-0.19863 0.36249,-0.11397 0.62757,-0.21369 0.85116,-0.32019 0.258,-0.12294 0.30576,-0.14013 0.60867,-0.21966 0.33114,-0.0869 0.47754,-0.11481 0.72294,-0.13758 0.1566,-0.0144 0.2019,-0.0135 0.2487,0.006 0.1248,0.0522 0.1515,0.17994 0.057,0.27441 -0.0492,0.0493 -0.0708,0.0575 -0.1746,0.0673 -0.50061,0.0474 -0.92988,0.15758 -1.30977,0.3362 -0.1404,0.066 -0.2631,0.12711 -0.2724,0.13572 -0.018,0.0165 -0.009,0.0156 0.2979,-0.0288 0.31464,-0.0455 0.5868,-0.0574 0.89358,-0.0394 0.33774,0.0198 0.39594,0.0388 0.42966,0.13968 0.018,0.0522 0.018,0.0736 -0.003,0.12252 -0.0423,0.10095 -0.0861,0.10929 -0.51318,0.0975 -0.42735,-0.0117 -0.51825,-0.004 -1.18938,0.10698 -0.56748,0.0935 -0.6858,0.11766 -1.2504,0.25524 -0.52398,0.12768 -0.59088,0.14745 -1.40487,0.41579 -0.83078,0.27387 -1.40711,0.43825 -1.87229,0.53404 -0.258,0.0531 -1.34367,0.20844 -1.55442,0.22239 -0.0873,0.006 -0.2634,0.0255 -0.39147,0.0436 -0.2172,0.0309 -0.37728,0.0356 -0.73491,0.0219 z m 0.74169,-0.38719 c 0.0837,-0.0129 0.2286,-0.0288 0.32214,-0.0351 0.32133,-0.0216 1.23354,-0.15435 1.62927,-0.23712 0.43776,-0.0916 1.67198,-0.45604 1.76639,-0.52165 0.0372,-0.0258 -0.1095,-0.005 -0.44252,0.0614 -0.70233,0.14124 -1.62699,0.26526 -2.27544,0.30525 -0.98208,0.0605 -1.23273,0.088 -1.41987,0.15552 -0.1059,0.0382 -0.5397,0.23613 -0.5583,0.25473 -0.024,0.0228 0.0426,0.034 0.2508,0.0434 0.2892,0.0132 0.53007,0.004 0.72756,-0.0264 z m -12.28996,0.32982 c -0.0558,-0.009 -0.1746,-0.0402 -0.2637,-0.0701 -0.1542,-0.0517 -0.1758,-0.0544 -0.44301,-0.0567 -0.276,-0.002 -0.2838,-0.004 -0.45645,-0.0638 -0.0966,-0.0338 -0.195,-0.074 -0.2184,-0.0895 -0.0642,-0.0421 -0.096,-0.13116 -0.0747,-0.21012 0.0324,-0.1206 0.1284,-0.17304 0.37911,-0.20724 0.0774,-0.0105 0.1752,-0.0258 0.2172,-0.0342 0.2802,-0.0548 0.51558,-0.11145 0.71487,-0.17193 0.5484,-0.16644 0.83577,-0.22917 1.35699,-0.29625 0.1833,-0.0237 0.36759,-0.0506 0.40923,-0.0599 0.0417,-0.009 0.2376,-0.0433 0.4356,-0.0754 0.37494,-0.0609 0.51246,-0.0951 0.89601,-0.22296 0.55868,-0.18627 1.07231,-0.52512 1.07231,-0.70738 0,-0.0317 -0.021,-0.0718 -0.0612,-0.11622 -0.0702,-0.0777 -0.39714,-0.28758 -0.69753,-0.44771 -0.32075,-0.171 -0.38426,-0.21792 -0.67481,-0.49843 -0.2046,-0.19761 -0.2829,-0.26277 -0.31506,-0.26277 -0.024,0 -0.1512,0.0415 -0.2832,0.0922 -0.2739,0.10512 -0.47856,0.1719 -0.75951,0.24792 -0.30309,0.082 -1.32093,0.43043 -1.35393,0.46345 -0.006,0.005 0.0306,0.062 0.0795,0.1263 0.0489,0.0643 0.1365,0.21648 0.195,0.33817 0.0585,0.12171 0.1485,0.29307 0.2004,0.38084 0.1212,0.20478 0.1446,0.30095 0.1053,0.43549 -0.021,0.0769 -0.0486,0.11859 -0.1182,0.18828 -0.1032,0.10323 -0.1884,0.15093 -0.33804,0.18936 -0.1986,0.051 -0.39423,0.0147 -0.69357,-0.12828 -0.0609,-0.0291 -0.1293,-0.0529 -0.1521,-0.0529 -0.03,-1e-5 -0.0825,0.0421 -0.1872,0.14967 -0.1629,0.16734 -0.2598,0.22665 -0.44886,0.27504 -0.1203,0.0307 -0.2049,0.0421 -0.65004,0.087 -0.1029,0.0105 -0.2907,0.0341 -0.417,0.0526 -0.41985,0.0616 -0.68166,0.0392 -0.95876,-0.0817 -0.41277,-0.18021 -0.52212,-0.41752 -0.36123,-0.78402 0.0447,-0.10146 0.0582,-0.15231 0.0501,-0.18537 -0.018,-0.0735 -0.126,-0.16137 -0.33141,-0.27054 -0.41646,-0.22146 -0.56559,-0.40821 -0.56415,-0.70637 7.8e-4,-0.16992 0.012,-0.21552 0.2019,-0.79999 0.1848,-0.56951 0.2727,-0.79574 0.41301,-1.0638 0.2403,-0.45869 0.47937,-0.76748 0.88454,-1.1425 0.67137,-0.62141 1.12455,-1.07324 1.16046,-1.15695 0.048,-0.11199 0.0564,-0.24693 0.033,-0.52425 -0.0477,-0.56192 0.0555,-0.79112 0.61275,-1.36156 0.43569,-0.44595 0.87546,-0.85259 1.044,-0.96532 0.1902,-0.12714 0.44004,-0.2541 0.59892,-0.30419 0.1854,-0.0584 0.43698,-0.0657 0.62976,-0.018 0.2349,0.0579 0.35277,0.12021 0.67605,0.35684 0.0324,0.0237 0.033,0.021 0.021,-0.11337 -0.021,-0.24153 0.0552,-0.44191 0.2385,-0.62731 0.1326,-0.13404 0.2283,-0.17094 0.51366,-0.19782 0.2358,-0.0222 0.57615,-0.001 0.76394,0.0465 0.1761,0.045 0.79359,0.26403 0.93549,0.33178 0.075,0.0358 0.3078,0.18024 0.51753,0.32109 0.2097,0.14085 0.38784,0.25209 0.39573,0.2472 0.009,-0.005 0.012,-0.21333 0.012,-0.46319 -0.003,-0.5043 0.006,-0.56777 0.1143,-0.84705 0.1281,-0.32622 0.2541,-0.45375 0.45132,-0.45654 0.1209,-0.002 0.24,0.057 0.42015,0.20736 0.0729,0.0609 0.2169,0.17403 0.31998,0.25131 0.1755,0.13182 0.36657,0.31392 0.47199,0.45019 l 0.0462,0.0596 0.0339,-0.0425 c 0.0627,-0.0786 0.1881,-0.3482 0.1989,-0.42723 0.012,-0.093 -0.012,-0.14568 -0.0753,-0.17115 -0.024,-0.01 -0.1569,-0.0198 -0.2925,-0.0216 -0.2691,-0.004 -0.34005,-0.0219 -0.43128,-0.10848 -0.0744,-0.0707 -0.1017,-0.13737 -0.1008,-0.24552 8.1e-4,-0.10422 0.051,-0.23205 0.165,-0.41983 0.078,-0.129 0.1677,-0.35019 0.2319,-0.57259 0.03,-0.10122 0.0642,-0.20067 0.0774,-0.22101 0.0645,-0.0985 0.2019,-0.10083 0.44046,-0.007 0.32478,0.12699 0.64425,0.3483 0.99357,0.68829 0.2337,0.22755 0.37053,0.38918 0.51084,0.60386 l 0.0942,0.14388 0.021,-0.0509 c 0.0642,-0.15726 0.0798,-0.31763 0.0924,-0.94328 0.012,-0.66973 0.018,-0.71471 0.1119,-0.88518 0.1005,-0.18486 0.2337,-0.264 0.82382,-0.48948 0.85035,-0.32496 1.17255,-0.41204 1.81272,-0.4899 0.2502,-0.0304 0.65832,-0.0363 0.72543,-0.0105 0.1071,0.0412 0.15,0.17766 0.0828,0.26301 -0.0498,0.0632 -0.1209,0.0801 -0.33165,0.0786 -0.2076,-10e-4 -0.41706,0.0186 -0.74892,0.0711 -0.2799,0.0444 -0.5004,0.0994 -0.79146,0.19743 -0.33318,0.11217 -1.04765,0.38903 -1.13306,0.43909 -0.0807,0.0472 -0.1365,0.11555 -0.1638,0.20027 -0.009,0.0307 -0.024,0.33462 -0.0312,0.68503 -0.015,0.70552 -0.015,0.70454 -0.1758,1.25104 -0.0426,0.14511 -0.0861,0.30177 -0.0963,0.34815 -0.0405,0.18336 -0.1209,0.26379 -0.2412,0.2412 -0.1065,-0.0201 -0.1368,-0.0722 -0.1515,-0.26196 -0.021,-0.27861 -0.1155,-0.49599 -0.33681,-0.78056 -0.2034,-0.2616 -0.61317,-0.63736 -0.87039,-0.79841 -0.1083,-0.0678 -0.30051,-0.16116 -0.3318,-0.16116 -0.03,0 -0.0318,0.004 -0.1275,0.26382 -0.0381,0.10296 -0.1149,0.2691 -0.171,0.36913 -0.1026,0.18357 -0.1194,0.23286 -0.0804,0.23784 0.012,10e-4 0.1131,0.004 0.2256,0.005 0.2931,0.003 0.45075,0.0635 0.55599,0.21228 0.0615,0.0868 0.0822,0.16041 0.0822,0.28998 0,0.19665 -0.0534,0.32962 -0.2919,0.72747 -0.1731,0.2889 -0.2451,0.34141 -0.38832,0.28407 -0.0591,-0.0237 -0.0819,-0.0497 -0.1608,-0.18384 -0.1422,-0.24147 -0.2151,-0.31762 -0.57012,-0.59408 -0.40974,-0.31919 -0.41001,-0.31938 -0.44541,-0.30043 -0.0471,0.0252 -0.1461,0.25449 -0.1869,0.43331 -0.012,0.054 -0.021,0.30621 -0.021,0.68935 -0.002,0.54259 -0.006,0.60985 -0.0327,0.65927 -0.0375,0.0686 -0.1089,0.10668 -0.2001,0.10668 -0.0852,0 -0.1041,-0.01 -0.2976,-0.1527 -0.2391,-0.17682 -0.77127,-0.52732 -0.89361,-0.58867 -0.1647,-0.0825 -0.82359,-0.30709 -0.97019,-0.33061 -0.0771,-0.0123 -0.246,-0.0183 -0.42552,-0.0147 -0.34962,0.007 -0.3762,0.0162 -0.48426,0.17292 -0.063,0.0913 -0.0672,0.10461 -0.0648,0.21198 0.001,0.063 0.021,0.20961 0.0462,0.32578 0.06,0.29034 0.0753,0.57065 0.0366,0.67182 -0.0348,0.0908 -0.0879,0.12969 -0.1776,0.12969 -0.0903,0 -0.1485,-0.0596 -0.1731,-0.17799 -0.024,-0.11898 -0.0969,-0.2298 -0.2451,-0.37596 -0.288,-0.28386 -0.54939,-0.41524 -0.82791,-0.41598 -0.1914,-5.2e-4 -0.44394,0.0975 -0.72072,0.27978 -0.2739,0.1803 -1.22241,1.11263 -1.3863,1.3625 -0.1473,0.22473 -0.1638,0.32516 -0.1314,0.80896 0.018,0.25806 -0.003,0.40436 -0.0786,0.55973 -0.0642,0.13263 -0.2679,0.34685 -0.84771,0.89144 -0.72729,0.68324 -0.8961,0.87566 -1.12892,1.28691 -0.1608,0.28374 -0.2307,0.45199 -0.40425,0.97203 -0.2544,0.76196 -0.2754,0.86476 -0.2028,0.98422 0.0519,0.0852 0.1053,0.1248 0.36345,0.27003 0.35277,0.19845 0.47912,0.34223 0.49964,0.56853 0.009,0.10533 -0.006,0.16866 -0.0858,0.34492 -0.0483,0.10731 -0.0507,0.12018 -0.027,0.16014 0.0336,0.0592 0.19979,0.14799 0.35678,0.19032 0.1647,0.0444 0.3372,0.0449 0.63207,0.002 0.1251,-0.0183 0.38409,-0.0491 0.57582,-0.0685 0.1917,-0.0195 0.37929,-0.0435 0.41673,-0.0536 0.1338,-0.036 0.2217,-0.0957 0.34935,-0.23712 0.2301,-0.25491 0.35853,-0.27672 0.69858,-0.11871 0.2367,0.10995 0.34386,0.13476 0.4545,0.10518 0.1008,-0.027 0.1917,-0.0946 0.1917,-0.14238 0,-0.0198 -0.0336,-0.0903 -0.075,-0.15657 -0.0411,-0.0663 -0.1284,-0.23163 -0.1938,-0.36738 -0.1335,-0.2769 -0.2046,-0.36909 -0.36627,-0.47442 -0.114,-0.0742 -0.1479,-0.12234 -0.1479,-0.20886 0,-0.12873 0.0966,-0.19926 0.417,-0.3042 0.1218,-0.0399 0.34383,-0.11817 0.49362,-0.17403 0.31695,-0.11817 0.49635,-0.17592 0.98928,-0.31851 0.1977,-0.0572 0.48114,-0.15075 0.62979,-0.2079 0.36411,-0.14001 0.43788,-0.15906 0.52014,-0.13443 0.081,0.0243 0.2193,0.13794 0.48312,0.39657 0.23309,0.22878 0.28559,0.26688 0.59801,0.43476 0.32319,0.1737 0.66348,0.39611 0.76602,0.50068 0.2316,0.23622 0.2232,0.5247 -0.024,0.77355 -0.2787,0.28218 -0.62409,0.47386 -1.19472,0.66317 -0.33731,0.1119 -0.54392,0.16305 -0.85418,0.21141 -0.1263,0.0198 -0.32934,0.0541 -0.45105,0.0765 -0.1218,0.0222 -0.32085,0.0528 -0.44256,0.0676 -0.2475,0.0302 -0.55638,0.0818 -0.72339,0.12093 -0.2343,0.0549 -0.81744,0.23544 -0.81207,0.25149 0.003,0.009 0.0699,0.0385 0.1485,0.0649 0.1197,0.0402 0.1713,0.048 0.31659,0.048 0.1839,0 0.2901,-0.0228 0.87456,-0.18681 0.2823,-0.0793 0.48366,-0.1215 0.77454,-0.16242 0.447,-0.0628 1.04625,-0.17898 1.25954,-0.24411 0.2586,-0.0789 0.38544,-0.1104 0.59574,-0.14772 0.0843,-0.015 0.291,-0.0551 0.45957,-0.0892 0.2862,-0.0579 0.32592,-0.0619 0.60423,-0.0605 0.189,9.1e-4 0.36936,0.0123 0.49362,0.031 0.1077,0.0162 0.2877,0.0346 0.40026,0.0406 0.1683,0.009 0.2136,0.0174 0.2553,0.0466 0.0423,0.0297 0.2652,0.1086 0.30651,0.1086 0.006,0 -0.009,-0.0279 -0.0354,-0.0623 -0.0669,-0.0876 -0.0912,-0.16665 -0.0921,-0.29961 -3.9e-4,-0.0633 -0.015,-0.1704 -0.0348,-0.23796 -0.0426,-0.15408 -0.0423,-0.22257 10e-4,-0.31896 0.0468,-0.10299 0.0774,-0.13428 0.1773,-0.18126 0.1617,-0.076 0.31992,-0.0444 0.46734,0.0932 0.0417,0.0389 0.0855,0.0708 0.0975,0.0708 0.012,0 0.0612,-0.0594 0.1095,-0.13191 0.1077,-0.16146 0.1701,-0.22923 0.273,-0.29514 0.1107,-0.0711 0.2208,-0.0811 0.321,-0.0294 0.1152,0.0594 0.1362,0.11499 0.1362,0.36287 0,0.22647 0.021,0.29187 0.1077,0.35623 0.039,0.0285 0.0729,0.0352 0.1788,0.0347 0.1428,-5.9e-4 0.30105,-0.049 0.88803,-0.27156 0.47598,-0.18048 0.64847,-0.23046 1.14041,-0.33044 0.1827,-0.0371 0.42381,-0.0871 0.53616,-0.11115 0.34518,-0.0738 0.64998,-0.11976 1.02975,-0.15516 0.3228,-0.0301 1.04988,-0.0326 1.42128,-0.005 0.30642,0.0228 0.45927,0.008 0.92958,-0.0887 1.2633,-0.2604 1.38504,-0.2802 2.2448,-0.36494 0.65139,-0.0642 0.73335,-0.075 1.0383,-0.13722 0.1545,-0.0315 0.36126,-0.0694 0.45957,-0.0842 0.2925,-0.044 1.01952,-0.20073 1.25103,-0.26964 0.2421,-0.0721 1.05579,-0.39505 1.35318,-0.53711 0.1896,-0.0906 0.31572,-0.0559 0.33384,0.0918 0.012,0.10383 -0.0345,0.16446 -0.1839,0.23613 -0.32019,0.15348 -1.12233,0.46875 -1.42878,0.56154 -0.2442,0.074 -0.98253,0.23145 -1.32525,0.28269 -0.0795,0.012 -0.27,0.0475 -0.42279,0.0791 -0.1902,0.0394 -0.46161,0.0761 -0.85956,0.1164 -1.09979,0.11139 -1.19852,0.12726 -2.46227,0.39547 l -0.38298,0.0813 -0.38295,-0.008 c -0.80295,-0.0165 -1.47744,-0.008 -1.71912,0.0228 -0.32229,0.0405 -0.61701,0.0903 -0.88509,0.14967 -0.1263,0.0279 -0.36291,0.0773 -0.5256,0.10971 -0.4095,0.0815 -0.64118,0.14934 -1.04033,0.30471 -0.2799,0.10896 -0.62841,0.22893 -0.77214,0.26586 -0.1959,0.0503 -0.40917,0.0409 -0.54186,-0.024 -0.1725,-0.0844 -0.30294,-0.26766 -0.33579,-0.47169 -0.009,-0.0585 -0.021,-0.10995 -0.024,-0.11442 -0.003,-0.005 -0.0333,0.0288 -0.0645,0.0736 -0.1431,0.20781 -0.2487,0.28365 -0.39651,0.28512 -0.1062,0.001 -0.1944,-0.04 -0.2937,-0.13653 -0.0417,-0.0404 -0.0825,-0.0734 -0.0909,-0.0734 -0.021,0 -0.018,0.0473 0.009,0.14313 0.015,0.046 0.024,0.13212 0.024,0.19149 0,0.0806 0.009,0.11556 0.0303,0.13809 0.0411,0.0411 0.66984,0.19575 1.02513,0.25212 0.1545,0.0246 0.34596,0.0555 0.42552,0.069 0.0819,0.0138 0.33108,0.0288 0.57471,0.0346 0.4338,0.0102 0.71376,-0.004 1.09205,-0.0554 0.3255,-0.0443 0.4281,-0.0288 0.51879,0.0791 0.0405,0.0482 0.0465,0.0679 0.0396,0.12987 -0.015,0.12747 -0.1116,0.22293 -0.31428,0.30863 -0.1806,0.0763 -0.75077,0.24411 -0.94067,0.27678 -0.1548,0.0267 -0.285,0.0343 -0.62127,0.0366 -0.46563,0.003 -0.57327,-0.0102 -1.01274,-0.12531 -0.1077,-0.0282 -0.297,-0.0774 -0.42102,-0.10923 -0.1239,-0.0319 -0.30774,-0.0896 -0.40851,-0.12828 -0.37776,-0.14505 -0.49515,-0.18279 -0.70236,-0.22584 -0.30867,-0.0641 -0.50433,-0.0922 -0.80097,-0.11511 -0.2919,-0.0225 -0.285,-0.0234 -0.91815,0.0945 -0.40725,0.0757 -0.59331,0.11835 -0.78903,0.18069 -0.1602,0.051 -0.36458,0.0988 -0.6152,0.14379 -0.0843,0.015 -0.1914,0.035 -0.2382,0.0442 -0.0468,0.009 -0.2382,0.0388 -0.42552,0.0658 -0.38061,0.055 -0.5679,0.0962 -0.99834,0.21984 -0.47079,0.13524 -0.71985,0.17148 -0.94161,0.13701 z m 8.6462,-0.55647 0.1533,-0.012 -0.1023,-0.0114 c -0.0561,-0.006 -0.1788,-0.0123 -0.2724,-0.0135 -0.2322,-0.003 -0.45162,-0.0261 -0.82467,-0.086 -0.48426,-0.0779 -0.61056,-0.10236 -0.75915,-0.14676 -0.1566,-0.0468 -0.2628,-0.0565 -0.1608,-0.0147 0.0327,0.0135 0.1476,0.0471 0.2553,0.0748 0.1077,0.0276 0.2631,0.0696 0.34563,0.093 0.1734,0.0493 0.46233,0.10956 0.62352,0.13008 0.1143,0.0147 0.4677,0.008 0.74145,-0.0135 z m 19.506032,0.26283 c -0.027,-0.009 -0.1239,-0.0685 -0.2127,-0.13155 -0.3225,-0.22851 -0.5352,-0.50886 -0.6624,-0.87308 -0.0786,-0.22491 -0.0669,-0.32062 0.045,-0.36697 0.0348,-0.0144 0.2772,-0.0186 0.8871,-0.015 l 0.839182,0.005 0.06,0.0656 c 0.0576,0.063 0.0597,0.0698 0.0528,0.17021 -0.018,0.26109 -0.2781,0.6941 -0.54344,0.90586 -0.163202,0.13026 -0.309002,0.22746 -0.364742,0.24321 -0.03,0.008 -0.0714,0.007 -0.1011,-0.003 z m -8.144542,-0.4286 c -0.2628,-0.0392 -0.48336,-0.11076 -0.71928,-0.23339 -0.1644,-0.0854 -0.2169,-0.14379 -0.2169,-0.24093 0,-0.0873 0.0357,-0.14184 0.117,-0.17862 0.0522,-0.0237 0.1488,-0.0288 0.63618,-0.0335 l 0.57453,-0.006 0.051,0.051 c 0.0348,0.0349 0.051,0.0678 0.051,0.10419 0,0.0633 -0.0393,0.14541 -0.0807,0.16863 -0.024,0.0141 -0.018,0.0219 0.0501,0.0509 0.0783,0.0336 0.1329,0.10089 0.1329,0.16392 0,0.0499 -0.051,0.12677 -0.1017,0.1529 -0.0612,0.0316 -0.2841,0.0319 -0.49416,5.3e-4 z m 9.369764,-0.85186 c -0.0921,-0.0454 -0.0993,-0.0732 -0.1122,-0.43345 -0.0306,-0.84349 -0.0378,-1.59637 -0.015,-1.65002 0.027,-0.0665 0.2343,-0.24663 0.31293,-0.27255 0.0825,-0.0273 0.1659,0.0102 0.2274,0.10185 0.027,0.039 0.1509,0.20862 0.2772,0.37693 0.288,0.38342 0.2892,0.38544 0.2892,0.4526 2.1e-4,0.0535 -0.1059,0.32611 -0.2232,0.57428 -0.1683,0.35614 -0.4737,0.78002 -0.61419,0.85271 -0.0573,0.0297 -0.0774,0.0294 -0.1416,-0.002 z m -27.820484,-0.0578 c -0.0327,-0.007 -0.075,-0.0204 -0.0936,-0.0306 -0.0567,-0.0312 -0.1284,-0.11583 -0.1425,-0.16809 -0.036,-0.13443 0.0762,-0.35642 0.2958,-0.58545 l 0.1389,-0.14469 0.012,-0.1617 c 0.015,-0.20061 0.0363,-0.28461 0.0927,-0.34447 0.0576,-0.0612 0.1335,-0.0745 0.2181,-0.0383 0.0366,0.0156 0.1566,0.0581 0.2664,0.0941 0.30738,0.10083 0.38823,0.18408 0.42189,0.43433 0.015,0.10839 0.027,0.14007 0.0555,0.16002 0.14399,0.0957 0.21269,0.23043 0.18359,0.35984 -0.021,0.0878 -0.0588,0.14268 -0.15269,0.21483 -0.0984,0.0754 -0.1968,0.10152 -0.57213,0.15144 -0.58635,0.078 -0.61515,0.0803 -0.72339,0.0587 z m 0.4851,-0.39114 c 0.1218,-0.0177 0.2712,-0.0373 0.33246,-0.0434 0.1437,-0.0144 0.171,-0.0304 0.1149,-0.0672 -0.0648,-0.0425 -0.0816,-0.0995 -0.0816,-0.28065 0,-0.13746 -0.006,-0.17139 -0.03,-0.19311 -0.0372,-0.0329 -0.2208,-0.0913 -0.237,-0.0754 -0.006,0.007 -0.018,0.0612 -0.024,0.12162 -0.018,0.14967 -0.0459,0.19695 -0.2211,0.37675 -0.0831,0.0853 -0.1512,0.16383 -0.1512,0.17445 0,0.0261 0.0402,0.0243 0.2979,-0.0132 z m 25.393822,0.0228 c -0.1086,-0.0536 -0.1092,-0.0591 -0.1092,-0.93951 v -0.79484 l -0.2511,-0.24651 c -0.138,-0.13557 -0.49233,-0.48457 -0.7872,-0.77555 -0.69681,-0.68759 -2.78088,-2.7388 -3.09495,-3.04616 -0.34572,-0.33831 -0.48675,-0.53051 -0.674792,-0.91956 -0.28259,-0.5846 -0.38357,-1.08896 -0.30647,-1.53092 0.0687,-0.39472 0.25169,-0.81371 0.524362,-1.20094 0.2013,-0.28611 0.3024,-0.35868 0.41679,-0.29949 0.0513,0.0264 0.87735,0.89963 0.91746,0.96974 0.0402,0.07 0.027,0.15549 -0.0375,0.23481 -0.1644,0.20412 -0.1959,0.29517 -0.1959,0.56274 0,0.22167 0.0327,0.3832 0.1131,0.55771 0.0582,0.12642 0.0786,0.14739 2.12172,2.18312 1.1346,1.13051 2.07201,2.05347 2.08314,2.05103 0.018,-0.004 0.330092,-0.29607 0.856342,-0.80434 1.17648,-1.13623 1.13406,-1.09763 1.20648,-1.09783 0.1209,-3.3e-4 0.30591,0.37134 0.44577,0.8954 0.0402,0.15063 0.0546,0.25068 0.0669,0.46589 0.009,0.1746 0.009,0.28977 -7.8e-4,0.31732 -0.009,0.0237 -0.2595,0.28173 -0.55674,0.57317 -0.2973,0.29145 -0.68898,0.67697 -0.87066,0.85673 l -0.33039,0.32684 0.012,0.2742 c 0.006,0.15081 0.015,0.49128 0.021,0.7566 l 0.012,0.48239 -0.0666,0.0712 c -0.0447,0.0479 -0.0888,0.0764 -0.1347,0.0869 -0.0375,0.009 -0.35147,0.0156 -0.697852,0.0156 -0.52971,2e-5 -0.63813,-0.004 -0.68232,-0.0258 z m -3.12948,-0.20559 c -0.033,-0.0341 -0.1014,-0.14712 -0.1518,-0.25107 -0.2697,-0.5563 -0.39693,-1.10572 -0.49686,-2.14668 -0.0471,-0.49095 -0.024,-1.28942 0.0537,-1.82262 0.015,-0.10422 0.069,-0.16164 0.1608,-0.17178 0.0945,-0.0105 0.0927,-0.0114 0.56961,0.40324 0.1965,0.17099 0.47154,0.40984 0.61101,0.53078 0.1395,0.12093 0.2664,0.23673 0.2823,0.25731 0.0453,0.0587 0.0507,0.10896 0.024,0.21315 -0.018,0.0709 -0.024,0.19413 -0.027,0.46255 -4.2e-4,0.57965 0.0648,1.01256 0.2058,1.36367 0.0783,0.19551 0.0792,0.20046 0.0405,0.31346 -0.054,0.15822 -0.50469,0.5564 -0.89472,0.79031 -0.2409,0.14442 -0.2871,0.15147 -0.37812,0.0577 z m 6.247672,-2.1517 c -0.1446,-0.0165 -0.2058,-0.14055 -0.1356,-0.27591 0.015,-0.0297 0.1524,-0.1812 0.3048,-0.33664 0.32316,-0.32987 0.32874,-0.34035 0.2991,-0.56119 -0.0369,-0.27363 -0.021,-0.34535 0.0834,-0.39975 0.0429,-0.0222 0.30819,-0.0255 2.05002,-0.0255 h 2.00079 l 8.1e-4,-3.27228 c 3.9e-4,-1.79975 0.006,-3.30652 0.015,-3.34839 0.0315,-0.16293 0.17249,-0.21438 0.57956,-0.21147 0.2094,0.001 0.2727,0.009 0.41703,0.047 0.1713,0.0455 0.43644,0.16341 0.52602,0.23388 0.1017,0.08 0.0951,-0.19782 0.0951,4.08441 v 3.93409 l -0.0558,0.0558 -0.0558,0.0558 -0.48459,0.0114 c -0.60156,0.0141 -5.52596,0.0216 -5.64005,0.009 z m -10.864424,-0.0237 c -0.1104,-0.0483 -0.1074,-0.0174 -0.1074,-1.16812 0,-1.02348 3.9e-4,-1.04235 0.0354,-1.0984 0.0492,-0.0798 0.0681,-0.0912 0.61155,-0.37247 0.2667,-0.13809 0.5316,-0.28074 0.58842,-0.31703 0.1503,-0.096 0.2433,-0.0906 0.31872,0.0186 0.027,0.0379 0.03,0.108 0.03,0.70029 0,0.59345 0.003,0.65926 0.027,0.66888 0.015,0.006 0.47376,0.0102 1.0188,0.01 1.058362,-0.001 1.052422,-0.002 1.110532,0.0839 0.027,0.04 0.0306,0.10611 0.0351,0.68984 0.006,0.7041 0.003,0.72191 -0.0882,0.77215 -0.0489,0.0267 -0.1902,0.0294 -1.789072,0.0327 -1.4541,0.003 -1.74495,-2e-4 -1.79034,-0.0201 z m 17.432614,-0.5737 c -0.1032,-0.0567 -0.1251,-0.18363 -0.0468,-0.26901 0.0528,-0.0577 0.2277,-0.11193 0.89784,-0.27882 0.41766,-0.10398 0.67134,-0.18201 0.96171,-0.29577 0.2139,-0.0838 0.67149,-0.30927 0.73479,-0.362 l 0.0396,-0.0331 -0.0483,-5.2e-4 c -0.1107,-0.001 -0.41868,0.0779 -0.79416,0.20418 -0.39753,0.13374 -0.7089,0.21681 -0.95319,0.25434 -0.0702,0.0108 -0.2784,0.0469 -0.46299,0.0802 -0.1953,0.0352 -0.35409,0.0559 -0.38019,0.0493 -0.1551,-0.0389 -0.1734,-0.24816 -0.027,-0.32302 0.0519,-0.0267 0.35907,-0.0893 0.76065,-0.15498 0.33894,-0.0554 0.5655,-0.11445 0.94356,-0.24588 0.54147,-0.18825 0.88041,-0.2517 1.42236,-0.26625 0.43116,-0.0117 0.4851,-0.0183 0.4851,-0.0602 0,-0.0186 -0.0315,-0.0801 -0.0699,-0.13676 -0.0924,-0.13605 -0.1101,-0.20124 -0.0747,-0.27573 0.03,-0.0632 0.0858,-0.096 0.1632,-0.096 0.0744,0 0.1218,0.0385 0.2103,0.17022 0.0936,0.13947 0.1275,0.21462 0.1533,0.33976 0.024,0.11151 0.002,0.10446 0.43509,0.14562 0.62669,0.0596 1.12802,0.0246 1.7021,-0.11889 1.0362,-0.2589 1.48767,-0.44329 2.9361,-1.19926 0.90486,-0.47227 1.6464,-0.82042 2.32157,-1.09001 0.1908,-0.0762 0.51261,-0.21186 0.71487,-0.30137 0.53646,-0.23745 0.64362,-0.27084 1.05735,-0.32945 0.2622,-0.0371 0.32541,-0.055 0.40602,-0.11496 0.0876,-0.065 0.123,-0.16545 0.1416,-0.3999 0.027,-0.32474 0.0897,-0.47309 0.2619,-0.60513 0.0957,-0.0734 0.267,-0.14106 0.38448,-0.1518 0.0849,-0.008 0.1068,-0.003 0.1872,0.0433 0.2829,0.16188 0.31131,0.40533 0.0822,0.70123 -0.1212,0.15666 -0.1416,0.18708 -0.1314,0.19734 0.006,0.005 0.0783,-0.0258 0.1629,-0.0683 0.2067,-0.10389 0.40584,-0.18516 0.69357,-0.28329 0.297,-0.10134 1.19181,-0.4632 1.38633,-0.56076 0.1635,-0.082 0.58707,-0.35521 0.68736,-0.4434 0.1089,-0.0956 0.1344,-0.1749 0.1467,-0.45296 l 0.012,-0.24114 0.0756,-0.14988 c 0.0831,-0.16452 0.1509,-0.22737 0.2454,-0.22737 0.03,0 0.0735,0.0147 0.0966,0.0329 0.0792,0.0624 0.2853,0.38819 0.32679,0.5171 0.0504,0.15594 0.0816,0.17553 0.2217,0.13899 0.0534,-0.0138 0.2202,-0.0913 0.37023,-0.1719 0.48141,-0.25851 0.47085,-0.2541 2.02266,-0.84032 0.34167,-0.12909 0.77826,-0.2862 0.9702,-0.3492 0.192,-0.063 0.48297,-0.16035 0.64677,-0.21639 0.1638,-0.056 0.5583,-0.1884 0.8766,-0.29412 0.3183,-0.10572 0.73886,-0.25059 0.93461,-0.32189 0.1956,-0.0713 0.50979,-0.17529 0.69786,-0.23106 0.41676,-0.1236 0.67287,-0.20985 1.15044,-0.38739 0.45153,-0.16785 0.51447,-0.18822 1.14891,-0.37185 0.70482,-0.20397 0.88353,-0.25125 1.28511,-0.33986 0.192,-0.0424 0.3987,-0.0929 0.45957,-0.11241 0.1788,-0.0572 0.38691,-0.16602 0.46767,-0.2445 0.1101,-0.10707 0.2859,-0.47569 0.32226,-0.67621 0.015,-0.0779 -0.003,-0.0877 -0.1947,-0.10326 -0.2697,-0.0219 -0.54708,-0.13293 -0.91011,-0.36415 -0.2841,-0.1809 -0.4566,-0.25956 -0.57021,-0.25986 -0.0993,-2.7e-4 -0.2043,0.11133 -0.2043,0.21753 0,0.0562 0.03,0.0861 0.1326,0.13839 0.1893,0.0952 0.2691,0.22739 0.255,0.42245 -0.0333,0.46256 -0.64314,0.71687 -0.98967,0.41263 -0.087,-0.0764 -0.1278,-0.1638 -0.1512,-0.32272 l -0.021,-0.13407 0.0543,-0.10368 c 0.0699,-0.13341 0.0696,-0.15423 -0.002,-0.15423 -0.0675,0 -0.60354,0.0779 -0.64395,0.0936 -0.015,0.006 -0.0549,0.051 -0.0873,0.10005 -0.0324,0.049 -0.0981,0.13347 -0.1455,0.18771 -0.0696,0.0794 -0.09,0.11733 -0.105,0.19476 -0.0549,0.28062 -0.156,0.38356 -0.46797,0.47627 -0.1974,0.0587 -0.2775,0.0898 -0.51066,0.19839 -0.52767,0.24573 -1.21539,0.83346 -1.5377,1.31414 -0.087,0.12966 -0.1263,0.15843 -0.2175,0.15843 -0.0603,0 -0.084,-0.0117 -0.1572,-0.0775 -0.0522,-0.047 -0.1197,-0.13578 -0.171,-0.22554 -0.1458,-0.2544 -0.1644,-0.26373 -0.36396,-0.18 -0.054,0.0228 -0.1689,0.0574 -0.2553,0.0771 -0.1824,0.0416 -0.2037,0.0513 -0.39099,0.17925 -0.1818,0.12399 -0.2859,0.17106 -0.42192,0.19032 -0.2496,0.0354 -0.46899,-0.0546 -0.70026,-0.28728 -0.1323,-0.13317 -0.1584,-0.17034 -0.2505,-0.35925 -0.0564,-0.11588 -0.1239,-0.27197 -0.1497,-0.34686 -0.0453,-0.13095 -0.0471,-0.14931 -0.0474,-0.479 -3.3e-4,-0.30437 -0.003,-0.34659 -0.0306,-0.37634 -0.018,-0.0183 -0.1488,-0.0926 -0.2937,-0.16484 -0.2226,-0.11094 -0.2865,-0.13509 -0.41229,-0.15549 -0.30963,-0.0503 -0.30945,-0.0504 -0.2724,0.25415 0.021,0.17292 0.024,0.25629 0.012,0.36048 -0.0657,0.53558 -0.33645,0.9794 -0.59628,0.97769 -0.081,-5.1e-4 -0.1902,-0.0548 -0.2337,-0.11604 -0.1305,-0.18327 -0.1818,-0.48376 -0.1353,-0.79056 0.024,-0.16599 0.018,-0.17349 -0.1779,-0.21657 -0.2913,-0.0637 -0.50838,-0.17985 -0.80361,-0.43032 -0.17399,-0.14769 -0.22319,-0.17868 -0.24629,-0.15543 -0.009,0.009 -0.024,0.0978 -0.0333,0.19776 -0.0342,0.36178 -0.1137,0.49894 -0.54237,0.93557 -0.31563,0.32156 -0.45825,0.44258 -0.70275,0.59637 -0.2511,0.15801 -0.32226,0.15381 -0.71097,-0.0421 l -0.2442,-0.12303 -0.30045,0.001 c -0.33729,0.001 -0.48975,0.0225 -0.70044,0.0961 -0.30369,0.10629 -0.88437,0.41339 -1.20852,0.63913 -0.0609,0.0424 -0.2715,0.23958 -0.46806,0.4382 -0.45384,0.45853 -0.89817,0.85041 -1.11012,0.97906 -0.1299,0.0789 -0.2751,0.13326 -0.43436,0.16269 -0.0774,0.0144 -0.1635,0.0315 -0.1917,0.0383 l -0.051,0.0123 -0.006,0.14826 -0.006,0.14826 0.093,0.0412 c 0.1716,0.0758 0.31676,0.2496 0.31676,0.37888 0,0.0625 -0.0624,0.1599 -0.11969,0.18735 -0.024,0.0111 -0.1071,0.0285 -0.1866,0.039 -0.1545,0.0204 -0.32538,0.0684 -0.42432,0.11955 -0.0333,0.0174 -0.1398,0.097 -0.2361,0.17712 -0.2169,0.18033 -0.34056,0.25005 -0.54813,0.30914 -0.0891,0.0252 -0.2535,0.0774 -0.36597,0.11568 -0.1911,0.0651 -0.2163,0.0696 -0.39147,0.0692 -0.1527,-3.3e-4 -0.2013,-0.007 -0.2637,-0.0356 -0.1233,-0.0567 -0.273,-0.17975 -0.39162,-0.32199 -0.201,-0.2409 -0.2712,-0.30869 -0.3624,-0.34995 -0.0825,-0.0374 -0.1074,-0.0398 -0.36939,-0.037 -0.2352,0.002 -0.2973,0.009 -0.38136,0.0383 -0.1356,0.0476 -0.186,0.045 -0.2505,-0.0126 -0.0441,-0.0395 -0.0537,-0.0606 -0.0537,-0.12006 0,-0.18339 0.2502,-0.27456 0.75381,-0.27456 0.2169,0 0.33873,0.0243 0.48786,0.0973 0.1248,0.0611 0.2112,0.13959 0.38784,0.35249 0.2049,0.24681 0.30411,0.31613 0.45273,0.31613 0.0387,0 0.1863,-0.0378 0.3282,-0.084 0.1419,-0.0462 0.30012,-0.0959 0.3516,-0.11037 0.1266,-0.0357 0.2349,-0.10224 0.41703,-0.25632 0.1437,-0.12147 0.42021,-0.28125 0.48687,-0.28125 0.015,0 0.039,-0.01 0.0555,-0.0216 0.027,-0.0201 0.027,-0.0246 -0.021,-0.06 -0.03,-0.021 -0.069,-0.0707 -0.0903,-0.11022 -0.036,-0.0673 -0.0381,-0.089 -0.0333,-0.33566 0.006,-0.23403 0.009,-0.27138 0.0429,-0.3317 0.0528,-0.0957 0.1398,-0.13776 0.35205,-0.17049 0.37817,-0.0583 0.43751,-0.0918 0.94454,-0.53372 0.1125,-0.0979 0.37275,-0.34758 0.57873,-0.55483 0.40926,-0.41184 0.47451,-0.46266 0.95316,-0.74228 0.50748,-0.29646 0.91242,-0.45639 1.26651,-0.50021 0.1161,-0.0144 0.2148,-0.03 0.2196,-0.0344 0.006,-0.005 -0.003,-0.0486 -0.018,-0.098 -0.015,-0.0494 -0.0348,-0.12171 -0.0453,-0.16077 -0.012,-0.0391 -0.0687,-0.13983 -0.129,-0.22392 -0.1401,-0.19494 -0.2085,-0.33042 -0.2376,-0.46958 -0.0495,-0.23583 0.0414,-0.37631 0.2649,-0.4098 0.1116,-0.0168 0.1239,-0.0279 0.1101,-0.10131 -0.006,-0.0398 -0.036,-0.0867 -0.0789,-0.12951 -0.1008,-0.10068 -0.1488,-0.0944 -0.32049,0.0419 -0.1716,0.13638 -0.2541,0.16959 -0.3978,0.16044 -0.1986,-0.0126 -0.40017,-0.14694 -0.47727,-0.31805 -0.027,-0.0631 -0.0378,-0.12753 -0.0459,-0.31742 -0.009,-0.23403 -0.012,-0.24051 -0.075,-0.36279 -0.0846,-0.16278 -0.0981,-0.2829 -0.0453,-0.40546 0.0513,-0.11928 0.15,-0.20781 0.35439,-0.318 0.31758,-0.17121 0.62097,-0.43536 0.85959,-0.74845 0.0855,-0.1122 0.1854,-0.22566 0.222,-0.25215 0.0792,-0.0573 0.2322,-0.11736 0.2994,-0.11736 0.0633,0 0.1935,0.0705 0.30345,0.16422 0.0489,0.0417 0.1521,0.11061 0.2298,0.15324 0.1575,0.0865 0.34563,0.22308 0.44502,0.3229 0.036,0.0363 0.1182,0.13878 0.1821,0.22773 0.0639,0.089 0.1515,0.20382 0.1944,0.2553 0.1467,0.17631 0.2013,0.35014 0.156,0.49678 -0.012,0.0432 -0.009,0.0468 0.0594,0.0656 0.1092,0.0294 0.31851,0.14991 0.39222,0.22587 0.1305,0.13461 0.132,0.30272 0.003,0.57274 -0.0945,0.19983 -0.0987,0.2379 -0.0684,0.62341 0.012,0.13743 0.009,0.21276 -0.006,0.27753 -0.024,0.10155 -0.1323,0.27336 -0.1992,0.31723 -0.06,0.0394 -0.153,0.04 -0.2451,0.001 -0.0414,-0.0171 -0.1047,-0.0434 -0.1407,-0.0583 -0.036,-0.0147 -0.1011,-0.0671 -0.1452,-0.11625 -0.0438,-0.0491 -0.1122,-0.11301 -0.1521,-0.1419 -0.0858,-0.0622 -0.1317,-0.13173 -0.1461,-0.22191 -0.009,-0.0523 -0.0366,-0.0921 -0.1374,-0.19425 -0.1326,-0.13446 -0.1698,-0.14739 -0.1902,-0.0661 -0.009,0.0337 0.003,0.0561 0.0588,0.11301 0.0909,0.093 0.2265,0.32053 0.2943,0.49407 0.0564,0.1443 0.0816,0.33975 0.0594,0.45834 -0.018,0.0884 -0.1023,0.20487 -0.2229,0.30261 -0.0597,0.0483 -0.1047,0.097 -0.1005,0.1083 0.012,0.0305 0.2127,0.12891 0.2634,0.12891 0.024,-1e-5 0.1122,-0.0449 0.2043,-0.10539 0.1221,-0.0803 0.2436,-0.18864 0.51069,-0.45531 0.42993,-0.42943 0.4461,-0.45607 0.48135,-0.79249 0.012,-0.12171 0.036,-0.25191 0.0519,-0.28935 0.0864,-0.20466 0.291,-0.27 0.51206,-0.16356 0.0561,0.027 0.1863,0.11952 0.2895,0.20553 0.2931,0.2448 0.41739,0.31045 0.71196,0.37622 0.1707,0.0381 0.255,0.0765 0.32115,0.14619 0.0987,0.10392 0.1167,0.2169 0.0792,0.49772 -0.021,0.14913 -0.002,0.34431 0.0348,0.38108 0.021,0.0207 0.0612,-0.0425 0.1209,-0.18933 0.0786,-0.19335 0.1083,-0.35861 0.0957,-0.53693 -0.006,-0.0854 -0.015,-0.22236 -0.021,-0.30439 -0.018,-0.23826 0.0435,-0.37396 0.204,-0.45982 0.0618,-0.033 0.0954,-0.0377 0.2664,-0.0366 0.2898,0.002 0.4053,0.0338 0.76149,0.21117 0.47904,0.23853 0.55401,0.34697 0.51204,0.74082 -0.0321,0.30142 -0.002,0.4578 0.1512,0.77437 0.129,0.26739 0.35307,0.46017 0.53385,0.45928 0.0915,-4.8e-4 0.1773,-0.0379 0.34218,-0.14892 0.1845,-0.12444 0.2568,-0.15711 0.48222,-0.21816 0.1122,-0.0304 0.258,-0.0749 0.3234,-0.0988 0.2577,-0.0941 0.43656,-0.0279 0.60486,0.22365 0.0486,0.0726 0.0942,0.13197 0.1011,0.13197 0.006,0 0.111,-0.10614 0.2307,-0.23586 0.56627,-0.61374 1.18049,-1.02972 1.84109,-1.24694 0.1293,-0.0425 0.2481,-0.089 0.264,-0.10338 0.015,-0.0144 0.0372,-0.0693 0.0474,-0.1221 0.027,-0.13557 0.0855,-0.25308 0.1827,-0.36065 0.0462,-0.051 0.1134,-0.13776 0.1497,-0.19272 0.0693,-0.10545 0.1626,-0.18447 0.2523,-0.21372 0.0939,-0.0306 0.65037,-0.10332 0.789,-0.10314 0.1041,2e-4 0.1518,0.009 0.2202,0.0407 l 0.087,0.0405 0.03,-0.10455 c 0.0519,-0.18762 0.1572,-0.321 0.31956,-0.40449 0.1029,-0.053 0.30042,-0.0633 0.4332,-0.0228 0.1413,0.0431 0.39576,0.1722 0.58458,0.29643 0.1992,0.13113 0.31935,0.19263 0.48012,0.24591 0.153,0.0508 0.41181,0.0852 0.5241,0.0697 0.1758,-0.0243 0.2607,0.0468 0.2649,0.22128 0.006,0.24972 -0.0621,0.50871 -0.2139,0.8132 -0.1086,0.21789 -0.183,0.31692 -0.31092,0.41296 -0.2148,0.16146 -0.49953,0.27189 -0.9402,0.36463 -0.31746,0.0668 -0.7071,0.16665 -1.02975,0.26382 -0.1356,0.0409 -0.3234,0.0949 -0.41703,0.12015 -0.31203,0.084 -0.65637,0.19584 -1.02477,0.3329 -0.45894,0.17073 -0.83259,0.29628 -1.2135,0.40771 -0.1638,0.0479 -0.45483,0.14496 -0.64671,0.21558 -0.1917,0.0707 -0.60929,0.21471 -0.92762,0.32015 -0.31833,0.10545 -0.71283,0.23778 -0.87666,0.29412 -0.1638,0.0563 -0.43956,0.14811 -0.61275,0.20397 -0.31992,0.1032 -1.09338,0.38695 -1.63404,0.59947 -0.1638,0.0644 -0.40509,0.15669 -0.53616,0.20508 -0.2304,0.085 -0.55167,0.2367 -0.91767,0.43301 -0.0969,0.0519 -0.2208,0.10992 -0.276,0.12888 -0.34617,0.1194 -0.60603,0.01 -0.69492,-0.2925 -0.0552,-0.18834 -0.0699,-0.17658 -0.0834,0.0681 -0.012,0.20943 -0.0831,0.36847 -0.2286,0.51049 -0.14699,0.14349 -0.6347,0.46136 -0.87707,0.57181 -0.2328,0.10605 -1.0881,0.44665 -1.33923,0.53325 -0.2994,0.1032 -0.54099,0.2028 -0.70719,0.29139 -0.0684,0.0364 -0.1638,0.0794 -0.2124,0.0956 -0.1689,0.0561 -0.33003,0.006 -0.42093,-0.13152 -0.0369,-0.0557 -0.0447,-0.0874 -0.045,-0.18087 -3.9e-4,-0.13506 0.027,-0.19548 0.1743,-0.38063 0.1182,-0.1488 0.1449,-0.19476 0.1323,-0.22761 -0.0303,-0.0791 -0.2514,0.0437 -0.2973,0.1653 -0.009,0.0246 -0.021,0.12039 -0.027,0.21276 -0.018,0.28575 -0.0795,0.46177 -0.2073,0.60352 -0.1269,0.14055 -0.2763,0.19805 -0.65637,0.25259 -0.33567,0.0482 -0.48723,0.0949 -0.89763,0.27645 -0.192,0.0849 -0.50976,0.21921 -0.70635,0.29844 -0.8357,0.33679 -1.54886,0.67494 -2.70635,1.28322 -1.02696,0.53969 -1.67838,0.80025 -2.56956,1.02776 -0.40719,0.10395 -0.72621,0.15519 -1.10895,0.17814 -0.33549,0.0201 -0.68003,-7.9e-4 -1.36697,-0.0828 -0.1041,-0.0123 -0.1482,-0.009 -0.2499,0.0171 -0.2682,0.0703 -0.43515,0.14241 -0.75321,0.32558 -0.4041,0.23271 -0.81336,0.41577 -1.22802,0.54927 -0.1077,0.0346 -0.41403,0.11874 -0.68082,0.18687 -0.2667,0.0681 -0.54255,0.13998 -0.61278,0.15969 -0.1437,0.0403 -0.1974,0.044 -0.2469,0.0168 z m 15.33925,-10.04086 c 0.1491,-0.11118 0.1923,-0.16344 0.1923,-0.23337 2.7e-4,-0.1488 -0.1527,-0.44964 -0.31284,-0.61581 -0.0876,-0.0909 -0.1113,-0.12774 -0.1287,-0.20112 -0.018,-0.0776 -0.018,-0.10179 0.006,-0.17769 0.1269,-0.38766 0.53325,-0.49152 0.7581,-0.19371 0.0381,0.0505 0.09,0.10056 0.1155,0.11133 0.1065,0.0453 0.1656,0.12429 0.1833,0.24564 0.012,0.0739 0.027,0.0968 0.138,0.20973 0.0693,0.0697 0.1347,0.12384 0.1455,0.12027 0.0486,-0.0162 0.0543,-0.0628 0.0339,-0.27147 -0.036,-0.3638 -0.021,-0.49542 0.0771,-0.68221 0.1053,-0.20031 0.1026,-0.22635 -0.03,-0.29334 -0.1041,-0.0528 -0.1422,-0.0527 -0.32334,0.001 -0.177,0.0526 -0.39807,0.0702 -0.53211,0.0423 -0.36792,-0.0767 -0.62343,-0.39899 -0.51729,-0.65252 0.0672,-0.1605 0.34788,-0.30089 0.60261,-0.30137 0.0585,-2e-4 0.1065,-0.004 0.1065,-0.01 0,-0.0198 -0.1353,-0.20595 -0.1896,-0.26088 -0.0921,-0.0929 -0.2337,-0.19482 -0.39474,-0.28416 -0.0828,-0.0459 -0.1887,-0.11604 -0.2355,-0.15594 -0.1386,-0.1182 -0.1569,-0.11028 -0.36099,0.15495 -0.0873,0.11361 -0.2118,0.25596 -0.2763,0.31633 -0.1896,0.17724 -0.45807,0.38285 -0.6045,0.46273 -0.2082,0.11361 -0.2442,0.13998 -0.2505,0.18372 -0.003,0.0222 0.024,0.10227 0.0594,0.17814 0.0633,0.13377 0.0654,0.14433 0.0705,0.35068 0.003,0.11703 0.012,0.23268 0.021,0.25701 0.021,0.057 0.1395,0.12414 0.1932,0.11064 0.021,-0.005 0.0963,-0.0561 0.165,-0.11244 0.2181,-0.17877 0.39357,-0.21162 0.59214,-0.111 0.2871,0.14544 0.42753,0.46925 0.31776,0.7324 -0.0654,0.15705 -0.0894,0.17541 -0.2871,0.2199 -0.027,0.006 -0.0468,0.0219 -0.0468,0.0386 0,0.0377 0.0906,0.19653 0.1779,0.31168 0.1116,0.14727 0.1404,0.20337 0.1794,0.34859 0.021,0.0746 0.0456,0.14672 0.0564,0.16013 0.03,0.0361 0.1179,0.0868 0.1512,0.0869 0.015,0 0.081,-0.0388 0.1446,-0.0863 z m 12.46018,-0.96111 c 0.0762,-0.0319 0.1191,-0.0691 0.1515,-0.13209 0.0339,-0.0656 0.018,-0.10119 -0.0666,-0.1479 -0.0396,-0.0219 -0.1047,-0.0629 -0.1443,-0.091 -0.0399,-0.0282 -0.0747,-0.0479 -0.0777,-0.044 -0.003,0.004 -0.021,0.0493 -0.0408,0.10074 -0.018,0.0515 -0.045,0.11715 -0.0567,0.14592 -0.03,0.0696 -0.009,0.1368 0.0477,0.16785 0.0603,0.0327 0.1095,0.0328 0.1869,4.7e-4 z m -11.73946,-1.35473 c 0.0375,-0.0114 0.0657,-0.0279 0.0627,-0.0373 -0.009,-0.0264 -0.2847,-0.16044 -0.35187,-0.171 -0.0723,-0.0114 -0.1728,0.009 -0.2313,0.0476 -0.0522,0.0342 -0.0369,0.074 0.0489,0.12696 0.1131,0.0699 0.30498,0.0836 0.47172,0.0337 z m -25.081072,11.85014 c -0.0591,-0.0261 -0.2427,-0.24243 -0.94467,-1.11144 l -0.0426,-0.0527 -0.006,-1.43589 c -0.006,-1.59073 -0.012,-1.46365 0.1062,-1.61401 0.03,-0.0374 0.2286,-0.32468 0.4416,-0.63829 0.213,-0.31361 0.41313,-0.59485 0.44457,-0.62499 0.1353,-0.12969 0.2064,-0.0931 0.420122,0.21648 0.0873,0.12639 0.2799,0.40424 0.42776,0.61746 0.1641,0.23643 0.2817,0.42367 0.30156,0.47992 0.0309,0.0878 0.0324,0.16056 0.033,1.52403 l 4.2e-4,1.4318 -0.0384,0.0542 c -0.021,0.0297 -0.0807,0.10041 -0.1323,0.1569 -0.0516,0.0565 -0.2334,0.26712 -0.40364,0.46807 -0.448802,0.5295 -0.446642,0.52728 -0.515822,0.53601 -0.0327,0.004 -0.075,7.2e-4 -0.0936,-0.007 z m 0.1893,-0.58431 c 0.057,-0.0679 0.210002,-0.24978 0.340502,-0.40424 0.1305,-0.15447 0.25019,-0.29979 0.26639,-0.32293 0.027,-0.039 0.03,-0.14187 0.03,-1.38964 v -1.34756 l -0.33794,-0.48267 c -0.186002,-0.26547 -0.348272,-0.48266 -0.360932,-0.48266 -0.024,0 -0.69534,0.96125 -0.73992,1.05901 -0.021,0.0467 -0.024,0.24401 -0.024,1.33614 8.1e-4,0.70476 0.006,1.2947 0.012,1.31099 0.018,0.0463 0.67311,0.84693 0.69264,0.84695 0.009,1e-5 0.0639,-0.0555 0.1209,-0.12339 z m 2.901052,-0.24918 c -0.1053,-0.0189 -0.1494,-0.0793 -0.234,-0.31992 -0.0387,-0.1106 -0.1065,-0.30066 -0.1503,-0.42236 -0.2337,-0.64905 -0.2634,-0.74486 -0.2523,-0.81603 0.012,-0.0839 0.015,-0.0885 0.37512,-0.85203 0.159,-0.33701 0.2988,-0.6379 0.31101,-0.66865 0.0327,-0.0826 0.093,-0.12282 0.1851,-0.12282 0.0738,0 0.0837,0.006 0.1926,0.11715 0.1332,0.13605 0.2157,0.25845 0.34389,0.51024 0.1746,0.34251 0.2847,0.63323 0.34908,0.92153 0.1752,0.78365 0.1959,0.9134 0.1968,1.22551 8.1e-4,0.22065 -0.003,0.27285 -0.03,0.31899 -0.0588,0.10842 -0.0564,0.10794 -0.66189,0.11529 -0.30267,0.004 -0.58431,5.9e-4 -0.62583,-0.007 z m 6.41582,-0.35331 c -0.38235,-0.0358 -0.55857,-0.0767 -0.62394,-0.14493 l -0.0483,-0.0505 -0.006,-0.90637 -0.006,-0.90636 0.039,-0.0579 c 0.021,-0.0319 0.0846,-0.0836 0.1407,-0.11502 0.1446,-0.0813 0.2361,-0.16107 0.35127,-0.30583 0.2577,-0.32437 0.4851,-0.81911 0.55332,-1.20411 0.0372,-0.21033 0.021,-0.57819 -0.0351,-0.82768 -0.0516,-0.22656 -0.1182,-0.38746 -0.2493,-0.60262 -0.39831,-0.65329 -1.02294,-1.09992 -1.68948,-1.20802 -0.2055,-0.0333 -0.72738,-0.0335 -0.97928,-2.7e-4 -0.51171,0.0675 -0.94221,0.22812 -1.38795,0.51791 -0.1476,0.0959 -0.1989,0.12069 -0.2505,0.12069 -0.0831,0 -0.1767,-0.0783 -0.2046,-0.17127 -0.015,-0.0505 -0.012,-0.48209 0.009,-1.84094 0.015,-0.97622 0.03,-1.84772 0.03,-1.93666 0.002,-0.18983 0.0603,-0.53102 0.1245,-0.7218 0.1659,-0.49427 0.62823,-1.13225 1.07343,-1.48161 0.57711,-0.45289 1.27313,-0.71358 2.2808,-0.85422 0.2874,-0.0401 0.91296,-0.0403 1.19997,-4e-4 0.77613,0.10794 1.19979,0.21384 1.93191,0.48298 0.72573,0.26679 1.19892,0.58795 1.86126,1.26322 0.62285,0.63506 1.09247,1.29552 1.48346,2.08631 0.1953,0.39483 0.2901,0.68356 0.43413,1.31912 0.2241,0.98947 0.2472,1.17825 0.2148,1.74956 -0.054,0.95423 -0.1101,1.32049 -0.276,1.80159 -0.1362,0.39536 -0.31071,0.73337 -0.666,1.29082 -0.37143,0.58276 -0.66177,0.92381 -1.04796,1.23098 -0.54215,0.43126 -1.45718,0.93005 -2.09741,1.14331 -0.3849,0.12822 -1.01295,0.26439 -1.455,0.31549 -0.1971,0.0228 -0.54246,0.03 -0.7065,0.0144 z m 0.84732,-0.3969 c 0.42228,-0.0656 0.8211,-0.15426 1.12671,-0.25038 0.80715,-0.25383 1.95441,-0.93079 2.40944,-1.42169 0.40092,-0.43255 0.97347,-1.33309 1.18206,-1.85924 0.2088,-0.52675 0.282,-0.96436 0.32256,-1.933 0.024,-0.5542 0.006,-0.68205 -0.2373,-1.74465 -0.1446,-0.63112 -0.2874,-0.99146 -0.61377,-1.54891 -0.37185,-0.63487 -0.71967,-1.08643 -1.23269,-1.60044 -0.62457,-0.62572 -1.05513,-0.90658 -1.77879,-1.16036 -0.75288,-0.26403 -1.18089,-0.36258 -1.90803,-0.43931 -0.30294,-0.032 -0.47271,-0.0319 -0.79311,2e-4 -1.07412,0.10773 -1.89722,0.43116 -2.44556,0.96096 -0.38148,0.36859 -0.71073,0.89009 -0.80109,1.26875 -0.0627,0.26274 -0.0753,0.51483 -0.0945,1.88082 -0.009,0.69743 -0.024,1.44231 -0.03,1.65529 -0.009,0.34485 -0.009,0.38723 0.015,0.38723 0.015,0 0.0828,-0.032 0.1515,-0.071 0.45147,-0.25662 0.97248,-0.40148 1.58165,-0.43975 0.86277,-0.0542 1.46475,0.13389 2.08725,0.65224 0.36387,0.30296 0.72945,0.82199 0.86505,1.2281 0.1131,0.33859 0.159,0.86188 0.1041,1.18384 -0.1122,0.65833 -0.55221,1.43125 -0.97734,1.71685 l -0.1065,0.0716 0.003,0.7258 0.003,0.72581 0.0528,0.0138 c 0.2058,0.0533 0.75843,0.0521 1.1094,-0.002 z m -20.868874,0.33007 c -0.261,-0.0357 -0.58077,-0.11952 -1.03461,-0.27123 -1.1951,-0.39947 -1.64711,-0.66858 -2.28878,-1.36268 -0.80736,-0.87336 -1.35564,-1.83917 -1.60815,-2.83285 -0.1836,-0.72239 -0.2196,-1.21261 -0.1722,-2.34038 0.027,-0.65898 0.0591,-0.88392 0.1755,-1.25025 0.0642,-0.20202 0.2418,-0.65365 0.34305,-0.87176 0.2559,-0.55114 0.78996,-1.30478 1.25322,-1.76819 0.2385,-0.2385 0.42651,-0.39583 0.87936,-0.73556 0.6672,-0.50054 0.96869,-0.65825 1.65272,-0.86451 0.89409,-0.26961 1.49379,-0.37843 2.09847,-0.3808 0.31404,-0.001 0.39213,0.0129 0.42684,0.0779 0.027,0.0482 0.021,6.69356 -0.003,6.74187 -0.012,0.0201 -0.1059,0.13149 -0.2112,0.24756 -0.39708,0.43697 -0.60144,0.79693 -0.70818,1.24728 -0.0543,0.22968 -0.0549,0.68088 -0.001,0.92344 0.1977,0.89064 0.68439,1.47912 1.36071,1.64508 0.39024,0.0958 0.96051,0.11961 1.27725,0.0534 0.096,-0.0201 0.2262,-0.0564 0.2895,-0.0808 0.1758,-0.0679 0.2436,-0.0706 0.30939,-0.0117 0.0441,0.0395 0.0543,0.0616 0.0552,0.12072 10e-4,0.088 -0.036,0.14073 -0.2412,0.34206 -0.47634,0.46728 -1.12029,0.88467 -1.6824,1.0905 -0.64623,0.23661 -1.59513,0.35954 -2.16942,0.28104 z m 1.02612,-0.38218 c 0.85425,-0.11424 1.42437,-0.34132 2.08149,-0.82905 0.0822,-0.061 0.1458,-0.11472 0.1413,-0.11922 -0.006,-0.005 -0.0909,-0.007 -0.192,-0.006 -0.37605,0.005 -0.92016,-0.0733 -1.18593,-0.17013 -0.66003,-0.24039 -1.1592,-0.85081 -1.38117,-1.6891 -0.1329,-0.50154 -0.123,-1.03236 0.027,-1.48392 0.1188,-0.35657 0.34539,-0.7422 0.61383,-1.04509 0.078,-0.088 0.1668,-0.19056 0.1971,-0.22791 l 0.0552,-0.0679 v -3.14466 c 0,-2.795 -0.003,-3.14576 -0.027,-3.15457 -0.0303,-0.0117 -0.45093,0.0141 -0.6465,0.0397 -0.34215,0.0447 -0.70398,0.12501 -1.191,0.26451 -0.83136,0.23808 -1.09359,0.36896 -1.78766,0.89225 -0.69786,0.52613 -0.97656,0.80329 -1.42191,1.41404 -0.41157,0.56442 -0.70308,1.14358 -0.90816,1.80422 -0.1056,0.33994 -0.12,0.47627 -0.1623,1.53189 -0.0483,1.20512 0.1797,2.20093 0.7263,3.17441 0.1338,0.23805 0.45375,0.70702 0.64479,0.94466 0.2124,0.26427 0.66645,0.72859 0.8658,0.88544 0.39765,0.31286 0.81381,0.50201 1.82975,0.83168 0.33087,0.10737 0.55485,0.15702 0.88509,0.19623 0.1257,0.015 0.58164,-0.008 0.834,-0.0415 z m 10.872704,0.19914 c -0.024,-0.0219 -0.0507,-0.0658 -0.0606,-0.0979 -0.051,-0.16638 -0.0678,-1.75576 -0.021,-2.10927 0.009,-0.0702 0.036,-0.29256 0.0597,-0.4941 0.0705,-0.59747 0.234,-1.47767 0.39255,-2.11011 0.021,-0.0889 0.06,-0.25893 0.0837,-0.37774 0.081,-0.40324 0.1044,-0.49581 0.40335,-1.57854 0.0876,-0.31745 0.1695,-0.52135 0.35205,-0.87771 0.1347,-0.26298 0.1545,-0.29229 0.2145,-0.32161 0.0909,-0.0444 0.1737,-0.0234 0.2283,0.0578 0.0321,0.0476 0.0378,0.0716 0.027,0.11916 -0.006,0.0328 -0.015,0.93097 -0.018,1.996 l -0.006,1.93642 0.0441,0.0168 c 0.024,0.009 0.0807,0.0168 0.126,0.0168 0.1797,0 0.2808,0.0583 0.30729,0.17745 0.021,0.0978 -0.006,0.16086 -0.1761,0.38817 -0.2052,0.2756 -0.34839,0.50566 -0.49686,0.79862 -0.255,0.50332 -0.46275,1.09517 -0.5367,1.52931 -0.018,0.10767 -0.0411,0.21873 -0.0507,0.24681 -0.009,0.0288 -0.1593,0.19683 -0.3444,0.38724 l -0.32697,0.33618 -0.0783,-1e-5 c -0.0585,-1e-5 -0.0891,-0.0102 -0.1212,-0.0396 z m 0.3948,-0.67604 c 0.1242,-0.12489 0.1485,-0.16401 0.1605,-0.25725 0.006,-0.05 0.0378,-0.19815 0.0699,-0.3292 0.1698,-0.69331 0.4866,-1.40868 0.87858,-1.9837 0.0738,-0.10809 0.1341,-0.20574 0.1341,-0.21702 0,-0.0135 -0.0309,-0.0204 -0.0894,-0.0204 -0.1143,0 -0.2001,-0.0427 -0.2379,-0.11835 -0.027,-0.0549 -0.03,-0.16605 -0.018,-1.67231 0.009,-1.15682 0.006,-1.61351 -0.009,-1.61351 -0.024,0 -0.0318,0.0258 -0.1644,0.51914 -0.0603,0.22467 -0.1362,0.50424 -0.1686,0.62126 -0.0324,0.11703 -0.087,0.35063 -0.1215,0.51914 -0.0345,0.16851 -0.0771,0.36382 -0.0945,0.43404 -0.03,0.12051 -0.1419,0.62553 -0.2199,0.99153 -0.0402,0.18858 -0.1464,0.8247 -0.1614,0.96588 -0.006,0.0515 -0.0306,0.2583 -0.0561,0.45956 -0.0432,0.34324 -0.0462,0.40769 -0.0459,1.03828 2.1e-4,0.36978 0.006,0.69407 0.012,0.72064 0.015,0.0548 0.021,0.0517 0.1299,-0.0576 z m -3.178972,0.51202 c -0.1182,-0.0857 -0.44505,-0.56363 -0.44748,-0.65452 -7.8e-4,-0.0288 -2.1e-4,-0.18612 10e-4,-0.34946 0.003,-0.34178 -0.012,-0.2982 0.2049,-0.63064 0.0819,-0.12639 0.1701,-0.27417 0.1959,-0.32844 0.0486,-0.10269 0.1053,-0.14814 0.1845,-0.14814 0.0597,0 0.1428,0.0763 0.1632,0.15003 0.021,0.0796 0.024,1.77168 0.001,1.86696 -0.0336,0.14541 -0.1728,0.1887 -0.30333,0.0942 z m 6.075592,-0.62422 c -0.0312,-0.0159 -0.0738,-0.0564 -0.0942,-0.0899 -0.021,-0.0335 -0.171,-0.33208 -0.33453,-0.66349 -0.2475,-0.50163 -0.2973,-0.61501 -0.2973,-0.67682 0,-0.0718 0.006,-0.0795 0.1653,-0.23145 0.1836,-0.17463 0.2244,-0.24522 0.2514,-0.43612 0.027,-0.18651 -0.027,-0.44831 -0.1308,-0.65562 -0.057,-0.1125 -0.2373,-0.29832 -0.35007,-0.36082 -0.0849,-0.047 -0.0978,-0.0491 -0.2763,-0.0454 -0.2127,0.005 -0.2613,-0.009 -0.30564,-0.0838 -0.03,-0.0502 -0.0306,-0.0958 -0.021,-0.8716 0.006,-0.45026 0.018,-1.17864 0.027,-1.61864 0.009,-0.43999 0.024,-1.27104 0.0333,-1.84677 0.0309,-1.89551 0.0414,-2.0265 0.204,-2.5191 0.18,-0.54564 0.45585,-1.07292 0.81024,-1.54913 0.47709,-0.64105 0.97821,-1.09957 1.61601,-1.47866 0.32055,-0.1905 0.38994,-0.22497 0.65424,-0.32483 0.55712,-0.21051 1.00955,-0.29541 1.58402,-0.2973 0.37035,-0.001 0.44007,0.008 0.49479,0.0647 l 0.0378,0.0392 -8.1e-4,0.77971 -7.8e-4,0.77971 -0.0528,0.0529 -0.0528,0.0529 -0.2679,0.0108 c -0.4713,0.0189 -1.1079,0.16518 -1.46108,0.33604 -0.63225,0.30587 -1.16547,0.80033 -1.54593,1.43355 -0.1191,0.19815 -0.31497,0.59652 -0.3717,0.75588 -0.066,0.18528 -0.0783,0.35704 -0.0972,1.37019 -0.009,0.51956 -0.021,1.07104 -0.027,1.22551 -0.003,0.15447 -0.015,0.68296 -0.024,1.17444 -0.009,0.49148 -0.021,0.9666 -0.024,1.05582 -0.003,0.0892 -0.002,0.17016 0.003,0.17985 0.006,0.01 0.0579,0.0434 0.114,0.075 0.2439,0.1371 0.3801,0.26424 0.60462,0.56491 0.279,0.37345 0.33903,0.51441 0.40908,0.95841 0.0354,0.22485 0.0471,0.65295 0.024,0.84767 -0.021,0.17502 -0.144,0.66502 -0.2043,0.81772 -0.1347,0.34135 -0.3906,0.76301 -0.59373,0.97833 -0.1746,0.18492 -0.37098,0.26214 -0.50001,0.19644 z m -6.986962,-0.44029 c -0.0426,-0.0147 -0.1584,-0.11397 -0.3603,-0.3086 -0.1638,-0.15786 -0.36441,-0.34647 -0.4461,-0.4191 -0.1575,-0.14004 -0.1905,-0.18315 -0.1914,-0.2499 -0.001,-0.0743 0.34092,-0.79461 0.65508,-1.3797 0.75462,-1.40546 0.89121,-1.61886 1.85139,-2.8922 l 0.0474,-0.063 -0.002,-1.10532 c -10e-4,-0.60792 -0.003,-1.16659 -0.006,-1.24148 -0.002,-0.0749 -0.006,-0.79106 -0.009,-1.59147 -0.003,-0.8004 -0.012,-2.20591 -0.018,-3.12334 -0.006,-0.91743 -0.018,-2.57953 -0.021,-3.69355 l -0.012,-2.0255 0.0384,-0.10128 c 0.03,-0.0778 0.0522,-0.10938 0.0978,-0.13617 0.0573,-0.0336 0.0846,-0.0349 0.74892,-0.0348 0.918442,2e-4 0.858532,-0.0347 0.874582,0.50779 0.006,0.18873 0.015,1.3274 0.018,2.53035 0.006,1.20296 0.012,2.62762 0.018,3.16591 0.006,0.53828 0.018,2.3264 0.027,3.9736 l 0.018,2.99489 0.2913,0.42632 c 0.1602,0.23448 0.30108,0.45313 0.31299,0.48589 0.0309,0.0855 0.027,0.15783 -0.018,0.48404 -0.048,0.33374 -0.1722,1.22932 -0.1983,1.43082 -0.021,0.15777 -0.0525,0.23367 -0.1113,0.26514 -0.0579,0.031 -0.1506,0.0252 -0.1992,-0.0123 -0.024,-0.0174 -0.2457,-0.27123 -0.49589,-0.56427 -0.292202,-0.34221 -0.464522,-0.53095 -0.481682,-0.52765 -0.0627,0.012 -0.67974,0.74005 -1.03593,1.22214 -0.47151,0.63814 -0.83997,1.22621 -1.06956,1.70706 -0.0597,0.12498 -0.1197,0.23661 -0.1335,0.24804 -0.0471,0.0392 -0.1218,0.0502 -0.1872,0.0279 z m -5.355892,-0.46167 c -0.2808,-0.0319 -0.51276,-0.10094 -0.72213,-0.21512 -0.1704,-0.0928 -0.1611,-0.0532 -0.1704,-0.73586 -0.003,-0.32765 -0.012,-2.16975 -0.018,-4.09354 -0.006,-1.9238 -0.012,-3.63951 -0.018,-3.8127 -0.003,-0.17319 -0.009,-1.11861 -0.009,-2.10095 -0.002,-1.72033 -7.8e-4,-1.78768 0.03,-1.82976 0.018,-0.024 0.0618,-0.0586 0.0984,-0.0768 0.0651,-0.0322 0.0723,-0.0323 0.2883,-0.004 0.39498,0.0513 0.95322,0.19032 1.37937,0.34353 0.53985,0.1941 1.18691,0.57955 1.701982,1.01392 0.4878,0.41137 0.98694,1.08296 1.31898,1.77466 0.1563,0.3254 0.2565,0.59001 0.45075,1.18867 0.1602,0.49392 0.1632,0.50606 0.1386,0.56482 -0.015,0.0355 -0.0474,0.0716 -0.0795,0.0882 -0.1089,0.0563 -0.2154,-0.003 -0.31482,-0.17409 -0.0594,-0.10257 -0.34122,-0.50248 -0.46518,-0.66031 -0.30198,-0.38443 -0.78609,-0.87168 -1.1001,-1.10723 -0.2664,-0.19986 -0.969982,-0.6516 -1.208932,-0.77622 -0.1854,-0.0968 -0.47787,-0.21864 -0.5244,-0.21864 -0.0303,0 -0.0414,1.37145 -0.0543,6.74031 -0.006,2.07358 -0.015,3.80844 -0.018,3.85525 -0.012,0.10227 -0.0564,0.18153 -0.1206,0.21323 -0.0465,0.0228 -0.44499,0.0385 -0.58341,0.0228 z m 4.302022,-1.30966 c -0.0327,-0.0177 -0.0663,-0.0678 -0.1107,-0.1644 -0.1653,-0.35998 -0.33657,-0.69163 -0.43797,-0.84793 -0.48201,-0.74274 -1.06428,-1.25323 -1.816262,-1.59236 -0.21059,-0.095 -0.52733,-0.19728 -0.73718,-0.23808 -0.1311,-0.0255 -0.1614,-0.0381 -0.2112,-0.0875 l -0.0579,-0.0577 0.012,-0.86282 c 0.006,-0.47455 0.018,-1.26878 0.027,-1.76494 0.009,-0.49616 0.024,-1.43061 0.0354,-2.07655 0.021,-1.28689 0.018,-1.25908 0.1233,-1.31326 0.1227,-0.0635 0.2571,-0.008 0.70977,0.29205 0.529162,0.35101 1.273972,1.0566 1.949332,1.84672 0.44001,0.51474 0.74667,0.94125 1.09536,1.52337 0.4341,0.72477 0.54618,0.96147 0.79137,1.67134 0.1251,0.3621 0.2661,0.94967 0.2661,1.10896 0,0.10128 -0.0606,0.21771 -0.5907,1.13453 -0.2706,0.46807 -0.55932,0.96775 -0.64158,1.1104 -0.0822,0.14265 -0.1725,0.27861 -0.2004,0.30213 -0.0582,0.0488 -0.1341,0.0548 -0.2058,0.0159 z m 0.2559,-0.77747 c 0.0657,-0.11469 0.1572,-0.2736 0.2034,-0.35318 0.0462,-0.0796 0.1725,-0.29787 0.2805,-0.4851 0.108,-0.18723 0.252,-0.43616 0.31956,-0.55318 0.0678,-0.11703 0.1458,-0.25263 0.1734,-0.30133 l 0.0504,-0.0886 -0.027,-0.14973 c -0.0678,-0.36699 -0.2538,-0.98259 -0.41253,-1.36657 -0.2325,-0.56215 -0.7602,-1.44736 -1.24839,-2.09373 -0.1803,-0.23856 -0.72579,-0.86226 -1.00536,-1.14919 -0.3111,-0.31933 -0.684452,-0.66314 -0.951962,-0.87665 -0.20249,-0.1617 -0.49325,-0.3571 -0.53114,-0.3571 -0.03,0 -0.0321,0.10002 -0.063,1.99145 -0.009,0.5851 -0.027,1.57562 -0.0366,2.20115 -0.012,0.74196 -0.012,1.14313 -0.002,1.15401 0.009,0.009 0.0888,0.0345 0.1767,0.0564 0.50981,0.1266 1.154122,0.45892 1.581262,0.8156 0.50967,0.42562 0.95604,0.986 1.22721,1.54064 0.06,0.12252 0.1176,0.22293 0.1281,0.22317 0.012,2.7e-4 0.0729,-0.0934 0.1386,-0.20811 z m 19.194902,-1.54372 c -0.0651,-0.0267 -0.102,-0.0858 -0.102,-0.16314 0,-0.069 0.009,-0.0823 0.138,-0.21522 0.1722,-0.177 0.56514,-0.70345 0.8496,-1.13839 0.2514,-0.38419 0.4188,-0.5655 0.64869,-0.702 0.2256,-0.13398 0.35499,-0.17265 0.57654,-0.17229 0.1701,2.7e-4 0.2046,0.006 0.37608,0.0633 0.2373,0.0792 0.31155,0.0817 0.36978,0.0126 0.0549,-0.0651 0.0897,-0.17667 0.1131,-0.36049 0.0369,-0.29163 0.1074,-0.4299 0.246,-0.48292 0.2046,-0.0781 0.38589,0.0398 0.44592,0.28971 0.0435,0.1809 0.0531,0.19923 0.1428,0.26847 0.0456,0.0353 0.1047,0.0992 0.1308,0.14202 0.11159,0.1815 0.17549,0.21867 0.17549,0.10221 0,-0.0962 -0.0495,-0.22767 -0.12749,-0.33802 -0.255,-0.36116 -0.2865,-0.42914 -0.30771,-0.6634 -0.027,-0.31011 0.102,-0.51873 0.37562,-0.60228 0.1845,-0.0563 0.38028,-0.0665 0.64224,-0.0334 0.2841,0.036 0.38976,0.0708 0.49479,0.16323 0.0423,0.0371 0.0849,0.0675 0.0948,0.0675 0.009,0 0.048,-0.0443 0.0849,-0.0985 0.0612,-0.0901 0.1056,-0.1356 0.2532,-0.26004 0.0597,-0.0502 0.0951,-0.18036 0.0864,-0.31696 l -0.006,-0.082 -0.2298,-8.8e-4 c -0.1995,-7.5e-4 -0.2433,-0.006 -0.33189,-0.0409 -0.0567,-0.0222 -0.1305,-0.0683 -0.1659,-0.1035 -0.0828,-0.0825 -0.0864,-0.16472 -0.012,-0.31989 0.1677,-0.35442 0.4431,-0.61775 1.00518,-0.96091 0.0708,-0.0432 0.2532,-0.19184 0.4056,-0.33043 0.42063,-0.38251 0.50802,-0.45645 0.67434,-0.57063 0.0843,-0.0578 0.2604,-0.20922 0.3915,-0.3364 0.1311,-0.12717 0.2727,-0.2571 0.31488,-0.28872 0.042,-0.0316 0.1455,-0.12435 0.2298,-0.20607 0.1749,-0.16962 0.2508,-0.22104 0.40293,-0.27264 0.1614,-0.0548 0.33633,-0.0395 0.60132,0.0529 0.1881,0.0655 0.2217,0.0718 0.42552,0.0801 0.138,0.006 0.2388,0.0177 0.2679,0.0325 0.1038,0.0526 0.1245,0.20166 0.0486,0.34753 -0.021,0.0391 -0.0333,0.0749 -0.03,0.0796 0.012,0.0117 0.1359,-0.0627 0.2589,-0.15522 0.1446,-0.10878 0.44049,-0.4208 0.55028,-0.58053 0.0924,-0.13422 0.267,-0.49695 0.2487,-0.51554 -0.006,-0.005 -0.096,-0.008 -0.201,-0.006 -0.23579,0.005 -0.38234,-0.0234 -0.60203,-0.11742 -0.1338,-0.0572 -0.1719,-0.067 -0.2085,-0.0538 -0.024,0.009 -0.1557,0.0863 -0.2916,0.17208 -0.52626,0.33246 -0.732,0.40401 -1.08123,0.37606 -0.1467,-0.0117 -0.2286,-0.008 -0.40659,0.0162 -0.1224,0.0171 -0.2841,0.0362 -0.35895,0.0426 -0.2208,0.0186 -0.33651,0.0614 -0.54468,0.20079 -0.2535,0.1698 -0.3609,0.2757 -1.07211,1.05738 -0.37416,0.41124 -0.53772,0.55127 -0.79665,0.68212 -0.2706,0.13671 -0.48426,0.17877 -0.90834,0.17877 -0.1332,0 -0.2634,0.008 -0.28979,0.0183 -0.0756,0.0285 -0.1215,0.0817 -0.2055,0.23715 -0.1053,0.1947 -0.31734,0.53018 -0.35937,0.56821 -0.024,0.0225 -0.0993,0.0392 -0.2775,0.0624 -0.38742,0.0503 -0.57546,0.10917 -0.95193,0.29799 -0.54813,0.27489 -0.9957,0.61348 -1.70874,1.29269 -0.159,0.15159 -0.32001,0.30246 -0.35745,0.33526 -0.1458,0.12765 -0.55314,0.41942 -0.6,0.42971 -0.1017,0.0222 -0.2085,-0.0648 -0.2085,-0.17028 0,-0.0794 0.0561,-0.13851 0.31617,-0.33248 0.1233,-0.0921 0.34026,-0.27681 0.48195,-0.41056 0.81546,-0.76969 1.18995,-1.06678 1.71099,-1.35736 0.46131,-0.25725 0.79521,-0.38065 1.15326,-0.42621 0.0873,-0.0111 0.1758,-0.0234 0.1965,-0.0273 0.0363,-0.007 0.1086,-0.11847 0.34245,-0.52697 0.0786,-0.13734 0.1929,-0.25089 0.30102,-0.29865 0.1026,-0.0454 0.27749,-0.0651 0.58454,-0.0657 0.30264,-5.9e-4 0.40335,-0.0207 0.60669,-0.12039 0.2232,-0.10959 0.36294,-0.23718 0.88953,-0.81269 0.50895,-0.55625 0.62928,-0.67432 0.8637,-0.84757 0.2595,-0.19185 0.47604,-0.28494 0.72999,-0.31397 0.0852,-0.01 0.243,-0.0303 0.35079,-0.0457 0.1224,-0.0174 0.31692,-0.0285 0.51915,-0.0291 l 0.32337,-0.001 0.1107,-0.0526 c 0.096,-0.0456 0.2856,-0.15699 0.68901,-0.40485 0.1929,-0.11856 0.32094,-0.12342 0.55251,-0.021 0.1914,0.0847 0.3057,0.11253 0.45989,0.11217 0.1743,-3.9e-4 0.32991,-0.0361 0.47457,-0.10896 0.1386,-0.0698 0.2211,-0.0773 0.2925,-0.0267 0.0621,0.0442 0.0939,0.13617 0.0705,0.20364 -0.009,0.0273 -0.048,0.0904 -0.0855,0.14016 -0.0684,0.0905 -0.1071,0.16719 -0.24,0.47574 -0.1389,0.32193 -0.30651,0.55628 -0.60854,0.8505 -0.2175,0.21189 -0.53322,0.42877 -0.7419,0.5097 -0.1812,0.0703 -0.42948,0.1089 -0.54312,0.0845 -0.1656,-0.0355 -0.2346,-0.0972 -0.2346,-0.20964 0,-0.11619 0.0555,-0.18633 0.2511,-0.31701 0.0585,-0.0391 0.1065,-0.074 0.1065,-0.0776 0,-0.004 -0.0516,-0.0183 -0.1149,-0.0329 -0.0633,-0.0144 -0.1971,-0.0534 -0.2976,-0.0865 -0.1005,-0.0331 -0.2115,-0.0599 -0.2469,-0.0597 -0.1044,6e-4 -0.2019,0.0582 -0.36744,0.21711 -0.0858,0.0825 -0.2022,0.18537 -0.2583,0.22866 -0.0561,0.0433 -0.1863,0.16428 -0.2895,0.26889 -0.1191,0.12105 -0.2676,0.24789 -0.40851,0.349 -0.1218,0.0874 -0.35532,0.28221 -0.51915,0.433 -0.35163,0.32363 -0.47223,0.41904 -0.72339,0.57232 -0.2211,0.13493 -0.35508,0.2354 -0.47868,0.35899 -0.0951,0.095 -0.2106,0.25434 -0.2106,0.29022 0,0.0356 0.0801,0.044 0.2349,0.0243 0.2592,-0.0327 0.3816,0.0225 0.46437,0.20967 0.0333,0.0752 0.036,0.10353 0.027,0.28872 -0.015,0.31739 -0.0636,0.43187 -0.2505,0.57698 -0.0552,0.0428 -0.1266,0.11838 -0.1587,0.16797 -0.1833,0.28248 -0.40923,0.32991 -0.64146,0.13461 -0.1125,-0.0947 -0.1293,-0.10068 -0.36558,-0.12978 -0.1662,-0.0204 -0.2448,-0.0228 -0.33987,-0.009 -0.2331,0.0324 -0.2739,0.0682 -0.2718,0.23712 0.002,0.14121 0.0384,0.22698 0.1731,0.40473 0.2097,0.27696 0.2514,0.38978 0.2508,0.67848 -3.9e-4,0.1785 -0.006,0.21345 -0.039,0.27726 -0.0726,0.13779 -0.2067,0.18006 -0.39882,0.12573 -0.15929,-0.045 -0.23789,-0.10494 -0.32891,-0.25104 -0.0504,-0.0809 -0.1092,-0.14793 -0.1698,-0.19365 -0.0549,-0.0416 -0.1128,-0.10539 -0.1425,-0.15723 l -0.0498,-0.0873 -0.012,0.0665 c -0.0399,0.23409 -0.0963,0.36654 -0.2061,0.4841 -0.1677,0.17922 -0.36072,0.20529 -0.68715,0.0928 -0.30834,-0.10629 -0.47709,-0.09 -0.72768,0.0703 -0.1596,0.102 -0.2874,0.23931 -0.44127,0.47387 -0.246,0.37496 -0.3096,0.46605 -0.55842,0.8007 -0.40527,0.54505 -0.55674,0.68006 -0.69813,0.62219 z m -14.45347,-0.65198 c -0.03,-0.0304 -0.1035,-0.13002 -0.1665,-0.22134 -0.063,-0.0913 -0.1509,-0.20622 -0.1956,-0.2553 -0.0447,-0.0491 -0.0918,-0.10845 -0.105,-0.13185 -0.021,-0.0362 -0.024,-1.01927 -0.0324,-6.61265 l -0.009,-6.57009 h -1.029742 -1.02978 l -0.009,6.50201 c -0.006,5.71957 -0.012,6.50815 -0.0339,6.55307 -0.015,0.0282 -0.0714,0.129 -0.1278,0.22425 -0.0564,0.0952 -0.129,0.22095 -0.1617,0.2793 -0.0876,0.15591 -0.189,0.20388 -0.30495,0.14397 -0.0711,-0.0368 -0.1035,-0.12093 -0.1035,-0.26823 0,-0.37587 -0.1452,-1.04936 -0.37374,-1.73248 -0.2214,-0.66194 -0.51414,-1.35315 -0.96255,-2.2723 -0.43785,-0.89753 -0.57492,-1.21184 -0.79422,-1.82125 -0.279,-0.77532 -0.5172,-1.83076 -0.62607,-2.77441 -0.009,-0.0749 -0.027,-0.23958 -0.042,-0.36595 -0.1431,-1.24281 -0.1401,-1.57128 0.027,-2.91059 0.1566,-1.2618 0.39258,-2.11053 0.86136,-3.09781 0.2859,-0.60217 0.68118,-1.17277 1.23576,-1.78394 0.33468,-0.36885 1.31526,-1.27784 1.96254,-1.8193 0.1695,-0.14187 0.3228,-0.27606 0.34044,-0.29814 0.0462,-0.0581 0.1104,-0.0986 0.1557,-0.0986 0.0588,0 0.1245,0.0389 0.342812,0.20292 0.1086,0.0815 0.3887,0.28512 0.62276,0.45259 0.234,0.16746 0.48678,0.3532 0.56169,0.41275 0.36372,0.28923 0.78744,0.71466 1.16532,1.17 0.2904,0.35002 0.46725,0.62061 0.7839,1.19998 0.3336,0.61034 0.39522,0.75862 0.58599,1.40977 0.2292,0.78241 0.2682,1.02486 0.3582,2.23271 0.0885,1.18669 0.0525,2.50113 -0.0954,3.47228 -0.06,0.39403 -0.2193,1.11518 -0.33672,1.52338 -0.2742,0.95323 -0.52092,1.68052 -0.91284,2.68931 -0.0909,0.23403 -0.183,0.47531 -0.2046,0.53616 -0.021,0.0608 -0.0816,0.21978 -0.1338,0.3532 -0.1542,0.39601 -0.52899,1.4737 -0.61188,1.75995 -0.1542,0.53209 -0.2937,1.26201 -0.3117,1.63146 -0.015,0.282 -0.0447,0.34042 -0.18,0.34042 -0.0426,0 -0.0705,-0.0141 -0.1092,-0.0553 z m -0.012,-0.82268 c 0.1143,-0.65256 0.2526,-1.21236 0.40389,-1.63623 0.024,-0.0635 0.1143,-0.32352 0.2034,-0.57775 0.1536,-0.43786 0.2688,-0.74644 0.62574,-1.6739 0.71826,-1.86671 1.1247,-3.2895 1.26423,-4.42545 0.039,-0.31658 0.0579,-0.57392 0.0774,-1.04679 0.009,-0.23403 0.021,-0.50212 0.027,-0.59573 0.021,-0.36592 -0.084,-2.07567 -0.1551,-2.55314 -0.0441,-0.29682 -0.1089,-0.58174 -0.2202,-0.96875 -0.1992,-0.69312 -0.2628,-0.84492 -0.6471,-1.5435 -0.36102,-0.65631 -0.69894,-1.10075 -1.26699,-1.6664 -0.30297,-0.30171 -0.49137,-0.45733 -0.95379,-0.78783 -0.2106,-0.15053 -0.47975,-0.34507 -0.59801,-0.43229 -0.118202,-0.0872 -0.225602,-0.15858 -0.238502,-0.15858 -0.0753,0 -1.40919,1.18859 -2.01468,1.79508 -0.83643,0.83782 -1.38216,1.71625 -1.7778,2.8616 -0.249,0.72055 -0.37113,1.35687 -0.52116,2.7134 -0.0375,0.33848 -0.051,1.10372 -0.024,1.39547 0.0561,0.62343 0.1638,1.49976 0.2316,1.88107 0.2205,1.24213 0.52638,2.17819 1.09248,3.34462 0.0795,0.16383 0.2058,0.4242 0.2805,0.57862 0.61335,1.26735 1.00425,2.32573 1.1784,3.19058 0.03,0.14928 0.0624,0.27402 0.0723,0.27726 0.009,0.003 0.021,-0.0183 0.027,-0.048 0.006,-0.0297 0.012,-2.98455 0.012,-6.5665 0,-6.16623 0.002,-6.51582 0.03,-6.57223 0.0627,-0.12537 0.002,-0.12033 1.37442,-0.1152 1.135372,0.004 1.229542,0.007 1.280662,0.0347 0.0303,0.0165 0.0687,0.0507 0.0852,0.0758 0.027,0.0434 0.0303,0.38403 0.0384,6.6591 0.006,5.82507 0.012,6.61796 0.0339,6.65174 0.039,0.0589 0.0579,0.0376 0.0804,-0.0908 z m 17.69428,0.78914 c -0.2346,-0.11889 -0.35634,-0.24816 -0.41496,-0.44118 -0.027,-0.0935 -0.0564,-0.14199 -0.1293,-0.2244 -0.1665,-0.18789 -0.1752,-0.27852 -0.0387,-0.41182 0.0666,-0.0652 0.0738,-0.0678 0.1866,-0.0695 0.1008,-0.002 0.129,-0.009 0.2007,-0.0553 0.0498,-0.032 0.1059,-0.0535 0.1389,-0.0535 0.072,0 0.1668,0.0455 0.1998,0.0958 0.015,0.0219 0.0783,0.0785 0.1422,0.12588 0.2124,0.15741 0.2439,0.28938 0.1527,0.64058 -0.027,0.10818 -0.051,0.20874 -0.051,0.2235 0,0.0527 -0.0681,0.1665 -0.1173,0.19539 -0.0723,0.0427 -0.1497,0.0355 -0.2697,-0.0255 z m 0.1011,-0.53203 c 0.018,-0.0652 0.027,-0.13224 0.021,-0.14898 -0.015,-0.0433 -0.1581,-0.14928 -0.2034,-0.14928 -0.0609,0 -0.0828,0.0396 -0.054,0.0967 0.012,0.0264 0.0369,0.0909 0.0519,0.14322 0.0315,0.10926 0.0876,0.18978 0.1269,0.18219 0.018,-0.004 0.0375,-0.0455 0.0576,-0.12381 z m 11.48569,-2.37836 c -0.024,-0.012 -0.0615,-0.0602 -0.0846,-0.10695 -0.0369,-0.0742 -0.0435,-0.1173 -0.054,-0.34042 -0.006,-0.14049 -0.021,-0.29373 -0.0312,-0.34054 -0.027,-0.11967 -0.009,-0.22902 0.0711,-0.42552 l 0.0693,-0.17022 -0.0399,-0.20424 c -0.0435,-0.22269 -0.0573,-0.24546 -0.2151,-0.3545 -0.1377,-0.0951 -0.2526,-0.12975 -0.43167,-0.1302 -0.1365,-3.3e-4 -0.1755,-0.007 -0.2382,-0.0395 -0.153,-0.0796 -0.1887,-0.25647 -0.0939,-0.46398 0.0657,-0.14376 0.1065,-0.19131 0.2337,-0.27288 0.0642,-0.0412 0.117,-0.0845 0.117,-0.0963 2.7e-4,-0.0583 0.0411,-0.15618 0.0876,-0.20889 0.0582,-0.0663 0.1512,-0.10044 0.32502,-0.11904 0.1608,-0.0171 0.2058,0.01 0.36837,0.21927 0.2127,0.27459 0.33033,0.3927 0.47835,0.48075 0.1569,0.0933 0.2805,0.2133 0.36462,0.3536 0.135,0.22536 0.1542,0.46112 0.0621,0.76474 -0.0606,0.20001 -0.0627,0.26717 -0.018,0.51794 0.018,0.0985 0.018,0.15111 0.003,0.2607 -0.0363,0.24965 -0.1428,0.38046 -0.35349,0.43492 -0.0681,0.0177 -0.1563,0.0629 -0.2679,0.13764 -0.1785,0.11949 -0.27,0.14637 -0.3528,0.10359 z m 0.33882,-0.52328 c 0.0357,-0.0183 0.1011,-0.0423 0.1452,-0.0534 0.1329,-0.0335 0.1686,-0.13923 0.1221,-0.36375 -0.0429,-0.20763 -0.036,-0.36573 0.027,-0.5809 0.1107,-0.3861 0.0393,-0.56462 -0.31149,-0.77913 -0.1377,-0.0841 -0.2739,-0.2193 -0.47115,-0.46685 -0.1308,-0.16407 -0.1671,-0.17499 -0.2034,-0.0608 -0.03,0.0918 -0.1221,0.19914 -0.2217,0.25575 -0.1623,0.0923 -0.162,0.13374 0.002,0.14679 0.1428,0.0114 0.2934,0.0596 0.40863,0.13095 0.0444,0.0276 0.1107,0.0581 0.1473,0.068 0.1335,0.036 0.2259,0.20607 0.2991,0.55067 0.063,0.29742 0.0555,0.38025 -0.0573,0.62416 -0.018,0.0421 -0.0357,0.0996 -0.0363,0.12765 -0.001,0.0805 0.0582,0.43403 0.0732,0.43403 0.006,0 0.0429,-0.015 0.0786,-0.0332 z m -2.98107,-4.42744 c -0.0621,-0.0171 -0.2247,-0.15756 -0.2712,-0.23472 -0.021,-0.0341 -0.0783,-0.1065 -0.1281,-0.16095 -0.1365,-0.14913 -0.192,-0.28026 -0.1923,-0.45449 -2.7e-4,-0.1152 0.0468,-0.19278 0.1548,-0.255 0.0405,-0.0234 0.1209,-0.0904 0.1785,-0.14892 0.0576,-0.0585 0.1323,-0.11787 0.1659,-0.13191 0.0858,-0.0358 0.21,-0.0318 0.37329,0.012 0.1095,0.0294 0.1881,0.0377 0.36123,0.0383 0.1218,3.9e-4 0.2574,-0.006 0.30168,-0.0144 0.0999,-0.0186 0.1749,0.009 0.2097,0.0761 0.0495,0.0956 0.024,0.16053 -0.1197,0.32319 -0.051,0.0573 -0.1506,0.19071 -0.2211,0.29646 -0.1386,0.20823 -0.1995,0.27078 -0.34221,0.35125 -0.051,0.0288 -0.1299,0.0942 -0.1758,0.14556 -0.1275,0.14292 -0.2022,0.18282 -0.2949,0.15738 z m 0.1071,-0.48818 c 0.03,-0.0258 0.1053,-0.0778 0.1674,-0.11562 0.093,-0.0568 0.1281,-0.0923 0.201,-0.20307 0.0486,-0.0739 0.0849,-0.14001 0.0807,-0.14703 -0.003,-0.007 -0.0519,-0.0177 -0.1056,-0.024 -0.0537,-0.006 -0.162,-0.0258 -0.2406,-0.044 l -0.1428,-0.0329 -0.1038,0.0985 c -0.057,0.0541 -0.1224,0.11025 -0.1449,0.12471 -0.0585,0.0374 -0.0384,0.0965 0.0738,0.21873 0.0504,0.0548 0.1002,0.11571 0.1107,0.13548 0.024,0.0468 0.0384,0.0454 0.1041,-0.0108 z m 6.39887,-3.01635 c -0.2307,-0.0593 -0.31605,-0.0622 -0.51063,-0.0177 -0.1803,0.0413 -0.43914,0.0455 -0.51117,0.008 -0.1887,-0.0976 -0.1041,-0.4667 0.195,-0.84966 0.2637,-0.33788 0.5808,-0.55315 1.09947,-0.74672 0.255,-0.0951 0.63333,-0.14517 1.37844,-0.18222 0.2013,-0.01 0.4782,-0.03 0.61536,-0.0443 0.1371,-0.0144 0.2844,-0.021 0.3273,-0.0144 0.1035,0.0156 0.2187,0.0906 0.2544,0.16563 0.0597,0.12558 0.027,0.30097 -0.0795,0.41919 -0.078,0.0871 -0.50433,0.39077 -0.60096,0.42806 -0.1053,0.0407 -0.2418,0.0491 -0.53388,0.0328 -0.12,-0.007 -0.1524,-0.003 -0.1872,0.0219 -0.024,0.0165 -0.0795,0.0567 -0.1251,0.0895 -0.0456,0.0328 -0.1374,0.0755 -0.2043,0.0949 -0.2352,0.0684 -0.24,0.0733 -0.30696,0.30673 -0.0876,0.30582 -0.36189,0.40333 -0.81012,0.28812 z m 0.44505,-0.3569 c 0.015,-0.0198 0.0375,-0.0762 0.0477,-0.1251 0.0369,-0.17703 0.1587,-0.32795 0.31917,-0.39545 0.03,-0.0126 0.1017,-0.035 0.1596,-0.0498 0.0723,-0.0186 0.1395,-0.0527 0.216,-0.10998 0.1791,-0.13422 0.30984,-0.16047 0.59049,-0.11874 0.1812,0.027 0.2523,0.005 0.45246,-0.13866 0.0897,-0.0644 0.1779,-0.13386 0.1959,-0.15435 l 0.0333,-0.0373 -0.0852,0.0102 c -0.0468,0.005 -0.2268,0.018 -0.39999,0.0279 -0.9063,0.0514 -1.27131,0.088 -1.48083,0.14844 -0.1869,0.0539 -0.59163,0.25026 -0.726,0.35216 -0.1707,0.12954 -0.41586,0.41659 -0.46425,0.54387 -0.015,0.0427 -0.015,0.0457 0.03,0.0456 0.027,-2e-4 0.0885,-0.0114 0.1401,-0.0252 0.1428,-0.0384 0.35094,-0.0322 0.55098,0.0162 0.0948,0.0231 0.1878,0.0455 0.2064,0.05 0.0738,0.0177 0.1854,-0.003 0.2154,-0.0395 z"
       id="path2337" />
  </g>
</svg>
